<svg width="440" height="196" viewBox="0 0 440 196" fill="none" xmlns="http://www.w3.org/2000/svg">
<rect width="440" height="196" rx="20" fill="url(#paint0_linear_2_465)"/>
<circle cx="93" cy="36" r="15" fill="white" fill-opacity="0.87"/>
<circle cx="80" cy="36" r="15" fill="white" fill-opacity="0.45"/>
<path d="M75.72 98V88.12H73.4V85.16H75.72V82.28H73.4V79.32H75.72V69.44H82L85.12 79.32H88.76V69.44H93.2V79.32H95.48V82.28H93.2V85.16H95.48V88.12H93.2V98H86.88L83.68 88.12H80.16V98H75.72ZM80.16 85.16H82.8L81.92 82.28H80.08L80.16 85.16ZM88.88 91.76H89.08L88.92 88.12H87.84L88.88 91.76ZM80 79.32H81.12L79.96 75.48H79.8L80 79.32ZM87 85.16H88.84L88.76 82.28H86.08L87 85.16ZM100.131 98V97.68C102.797 96.4 105.184 94.7333 107.291 92.68C109.397 90.6 110.784 88.36 111.451 85.96C110.171 88.0933 108.104 89.16 105.251 89.16C102.717 89.16 100.717 88.4133 99.2506 86.92C97.8106 85.4267 97.0906 83.44 97.0906 80.96V80.76C97.0906 78.04 97.9706 75.88 99.7306 74.28C101.517 72.6533 103.891 71.84 106.851 71.84C110.024 71.84 112.531 72.72 114.371 74.48C116.237 76.2133 117.171 78.7333 117.171 82.04V82.72C117.171 84.56 116.851 86.3467 116.211 88.08C115.597 89.7867 114.771 91.28 113.731 92.56C112.717 93.8133 111.704 94.8933 110.691 95.8C109.704 96.68 108.691 97.4133 107.651 98H100.131ZM107.011 85.84C108.451 85.84 109.597 85.4533 110.451 84.68C111.331 83.9067 111.797 82.88 111.851 81.6V80.4C111.851 78.88 111.411 77.6667 110.531 76.76C109.651 75.8533 108.451 75.4 106.931 75.4C105.437 75.4 104.304 75.84 103.531 76.72C102.757 77.6 102.371 78.8133 102.371 80.36V80.88C102.371 82.3733 102.744 83.5733 103.491 84.48C104.237 85.3867 105.411 85.84 107.011 85.84ZM137.276 72.44V72.76C130.476 76.12 126.45 80.1067 125.196 84.72C126.476 82.5067 128.49 81.4 131.236 81.4C133.85 81.4 135.89 82.1467 137.356 83.64C138.85 85.1333 139.596 87.1067 139.596 89.56V89.76C139.596 92.48 138.73 94.64 136.996 96.24C135.263 97.8133 132.89 98.6 129.876 98.6C126.73 98.6 124.21 97.6933 122.316 95.88C120.45 94.04 119.516 91.56 119.516 88.44V87.68C119.516 86.1067 119.756 84.5867 120.236 83.12C120.743 81.6533 121.356 80.3867 122.076 79.32C122.823 78.2533 123.69 77.24 124.676 76.28C125.663 75.32 126.583 74.5467 127.436 73.96C128.29 73.3733 129.13 72.8667 129.956 72.44H137.276ZM129.676 84.76C128.236 84.76 127.09 85.1467 126.236 85.92C125.383 86.6667 124.93 87.7067 124.876 89.04V90.08C124.876 91.6 125.303 92.8133 126.156 93.72C127.036 94.6 128.236 95.04 129.756 95.04C131.25 95.04 132.383 94.6 133.156 93.72C133.956 92.84 134.356 91.64 134.356 90.12V89.52C134.356 88.1067 133.97 86.96 133.196 86.08C132.45 85.2 131.276 84.76 129.676 84.76ZM144.622 101.6H141.262C142.275 99.12 142.782 96.7467 142.782 94.48C142.782 93.8933 142.715 93.1733 142.582 92.32H147.662C147.715 92.9067 147.742 93.36 147.742 93.68C147.742 96.56 146.702 99.2 144.622 101.6ZM160.088 72.44H166.848V89.16H170.688V93.04H166.848V98H161.688V93.04H150.368V88.12L160.088 72.44ZM161.688 76.56L153.808 89.16H161.688V76.56ZM172.398 98V92.68C176.505 90.1467 179.465 87.9333 181.278 86.04C183.092 84.1467 183.998 82.2133 183.998 80.24C183.998 77.5467 182.505 76.2 179.518 76.2C177.225 76.2 175.025 76.9467 172.918 78.44V74.92C174.838 72.8933 177.398 71.88 180.598 71.88C183.265 71.88 185.385 72.5333 186.958 73.84C188.558 75.1467 189.358 77.2133 189.358 80.04C189.358 82.76 188.225 85.2533 185.958 87.52C183.718 89.76 180.332 91.92 175.798 94V94.04H189.478V98H172.398ZM197.533 98V76.88L191.973 82.76H191.853V77.64L196.773 72.44H202.693V98H197.533ZM210.254 98.36C209.428 98.36 208.708 98.0533 208.094 97.44C207.481 96.8267 207.174 96.0933 207.174 95.24C207.174 94.36 207.481 93.6133 208.094 93C208.708 92.36 209.428 92.04 210.254 92.04C211.134 92.04 211.881 92.36 212.494 93C213.108 93.6133 213.414 94.36 213.414 95.24C213.414 96.0933 213.108 96.8267 212.494 97.44C211.881 98.0533 211.134 98.36 210.254 98.36ZM224.676 82.04C227.609 82.04 229.823 82.7733 231.316 84.24C232.836 85.68 233.596 87.6667 233.596 90.2C233.596 92.6533 232.743 94.64 231.036 96.16C229.329 97.6533 226.983 98.4 223.996 98.4C220.503 98.4 217.929 97.52 216.276 95.76V92.32C218.276 93.7067 220.556 94.4 223.116 94.4C226.556 94.4 228.276 92.88 228.276 89.84C228.276 88.2933 227.823 87.16 226.916 86.44C226.009 85.6933 224.569 85.32 222.596 85.32C220.703 85.32 218.929 85.6667 217.276 86.36H216.956V72.44H232.116V76.76H221.076V82.56C222.276 82.2133 223.476 82.04 224.676 82.04ZM247.038 98.6C243.918 98.6 241.318 97.5067 239.238 95.32C237.158 93.1333 236.118 89.88 236.118 85.56V84.48C236.118 80.48 237.118 77.3867 239.118 75.2C241.118 72.9867 243.758 71.88 247.038 71.88C250.318 71.88 252.944 72.9867 254.918 75.2C256.918 77.3867 257.918 80.48 257.918 84.48V85.56C257.918 89.88 256.891 93.1333 254.838 95.32C252.784 97.5067 250.184 98.6 247.038 98.6ZM241.478 86.52C241.478 91.96 243.331 94.68 247.038 94.68C250.744 94.68 252.598 91.96 252.598 86.52V83.12C252.598 80.8 252.118 79.04 251.158 77.84C250.198 76.6133 248.824 76 247.038 76C245.251 76 243.878 76.6133 242.918 77.84C241.958 79.04 241.478 80.8 241.478 83.12V86.52Z" fill="white"/>
<path d="M74.278 134V121.4H79.03C80.338 121.4 81.328 121.706 82 122.318C82.672 122.93 83.008 123.698 83.008 124.622C83.008 125.426 82.792 126.068 82.36 126.548C81.928 127.016 81.406 127.334 80.794 127.502C81.274 127.598 81.7 127.79 82.072 128.078C82.456 128.366 82.756 128.726 82.972 129.158C83.188 129.59 83.296 130.058 83.296 130.562C83.296 131.21 83.134 131.798 82.81 132.326C82.498 132.842 82.036 133.25 81.424 133.55C80.812 133.85 80.062 134 79.174 134H74.278ZM76.186 126.8H78.796C79.528 126.8 80.086 126.632 80.47 126.296C80.854 125.948 81.046 125.474 81.046 124.874C81.046 124.286 80.854 123.818 80.47 123.47C80.098 123.122 79.528 122.948 78.76 122.948H76.186V126.8ZM76.186 132.434H78.922C79.69 132.434 80.284 132.254 80.704 131.894C81.136 131.534 81.352 131.03 81.352 130.382C81.352 129.734 81.13 129.224 80.686 128.852C80.242 128.468 79.642 128.276 78.886 128.276H76.186V132.434ZM88.3394 134.216C87.5834 134.216 86.9594 134.09 86.4674 133.838C85.9754 133.586 85.6094 133.256 85.3694 132.848C85.1294 132.428 85.0094 131.972 85.0094 131.48C85.0094 130.616 85.3454 129.932 86.0174 129.428C86.6894 128.924 87.6494 128.672 88.8974 128.672H91.2374V128.51C91.2374 127.814 91.0454 127.292 90.6614 126.944C90.2894 126.596 89.8034 126.422 89.2034 126.422C88.6754 126.422 88.2134 126.554 87.8174 126.818C87.4334 127.07 87.1994 127.448 87.1154 127.952H85.2074C85.2674 127.304 85.4834 126.752 85.8554 126.296C86.2394 125.828 86.7194 125.474 87.2954 125.234C87.8834 124.982 88.5254 124.856 89.2214 124.856C90.4694 124.856 91.4354 125.186 92.1194 125.846C92.8034 126.494 93.1454 127.382 93.1454 128.51V134H91.4894L91.3274 132.47C91.0754 132.962 90.7094 133.376 90.2294 133.712C89.7494 134.048 89.1194 134.216 88.3394 134.216ZM88.7174 132.668C89.2334 132.668 89.6654 132.548 90.0134 132.308C90.3734 132.056 90.6494 131.726 90.8414 131.318C91.0454 130.91 91.1714 130.46 91.2194 129.968H89.0954C88.3394 129.968 87.7994 130.1 87.4754 130.364C87.1634 130.628 87.0074 130.958 87.0074 131.354C87.0074 131.762 87.1574 132.086 87.4574 132.326C87.7694 132.554 88.1894 132.668 88.7174 132.668ZM95.3701 134V121.04H97.2781V134H95.3701ZM102.718 134.216C101.962 134.216 101.338 134.09 100.846 133.838C100.354 133.586 99.9883 133.256 99.7483 132.848C99.5083 132.428 99.3883 131.972 99.3883 131.48C99.3883 130.616 99.7243 129.932 100.396 129.428C101.068 128.924 102.028 128.672 103.276 128.672H105.616V128.51C105.616 127.814 105.424 127.292 105.04 126.944C104.668 126.596 104.182 126.422 103.582 126.422C103.054 126.422 102.592 126.554 102.196 126.818C101.812 127.07 101.578 127.448 101.494 127.952H99.5863C99.6463 127.304 99.8623 126.752 100.234 126.296C100.618 125.828 101.098 125.474 101.674 125.234C102.262 124.982 102.904 124.856 103.6 124.856C104.848 124.856 105.814 125.186 106.498 125.846C107.182 126.494 107.524 127.382 107.524 128.51V134H105.868L105.706 132.47C105.454 132.962 105.088 133.376 104.608 133.712C104.128 134.048 103.498 134.216 102.718 134.216ZM103.096 132.668C103.612 132.668 104.044 132.548 104.392 132.308C104.752 132.056 105.028 131.726 105.22 131.318C105.424 130.91 105.55 130.46 105.598 129.968H103.474C102.718 129.968 102.178 130.1 101.854 130.364C101.542 130.628 101.386 130.958 101.386 131.354C101.386 131.762 101.536 132.086 101.836 132.326C102.148 132.554 102.568 132.668 103.096 132.668ZM109.749 134V125.072H111.441L111.585 126.638C111.861 126.086 112.263 125.654 112.791 125.342C113.331 125.018 113.949 124.856 114.645 124.856C115.725 124.856 116.571 125.192 117.183 125.864C117.807 126.536 118.119 127.538 118.119 128.87V134H116.229V129.068C116.229 127.34 115.521 126.476 114.105 126.476C113.397 126.476 112.809 126.728 112.341 127.232C111.885 127.736 111.657 128.456 111.657 129.392V134H109.749ZM124.596 134.216C123.72 134.216 122.934 134.018 122.238 133.622C121.554 133.226 121.014 132.68 120.618 131.984C120.234 131.276 120.042 130.46 120.042 129.536C120.042 128.612 120.234 127.802 120.618 127.106C121.014 126.398 121.554 125.846 122.238 125.45C122.934 125.054 123.72 124.856 124.596 124.856C125.7 124.856 126.624 125.144 127.368 125.72C128.124 126.296 128.61 127.076 128.826 128.06H126.828C126.708 127.568 126.444 127.184 126.036 126.908C125.628 126.632 125.148 126.494 124.596 126.494C124.128 126.494 123.696 126.614 123.3 126.854C122.904 127.082 122.586 127.424 122.346 127.88C122.106 128.324 121.986 128.876 121.986 129.536C121.986 130.196 122.106 130.754 122.346 131.21C122.586 131.654 122.904 131.996 123.3 132.236C123.696 132.476 124.128 132.596 124.596 132.596C125.148 132.596 125.628 132.458 126.036 132.182C126.444 131.906 126.708 131.516 126.828 131.012H128.826C128.622 131.972 128.142 132.746 127.386 133.334C126.63 133.922 125.7 134.216 124.596 134.216ZM135.071 134.216C134.195 134.216 133.415 134.024 132.731 133.64C132.059 133.244 131.531 132.698 131.147 132.002C130.763 131.306 130.571 130.496 130.571 129.572C130.571 128.636 130.757 127.814 131.129 127.106C131.513 126.398 132.041 125.846 132.713 125.45C133.397 125.054 134.189 124.856 135.089 124.856C135.965 124.856 136.727 125.054 137.375 125.45C138.023 125.834 138.527 126.35 138.887 126.998C139.247 127.646 139.427 128.36 139.427 129.14C139.427 129.26 139.421 129.392 139.409 129.536C139.409 129.668 139.403 129.818 139.391 129.986H132.443C132.503 130.85 132.785 131.51 133.289 131.966C133.805 132.41 134.399 132.632 135.071 132.632C135.611 132.632 136.061 132.512 136.421 132.272C136.793 132.02 137.069 131.684 137.249 131.264H139.157C138.917 132.104 138.437 132.806 137.717 133.37C137.009 133.934 136.127 134.216 135.071 134.216ZM135.071 126.422C134.435 126.422 133.871 126.614 133.379 126.998C132.887 127.37 132.587 127.934 132.479 128.69H137.519C137.483 127.994 137.237 127.442 136.781 127.034C136.325 126.626 135.755 126.422 135.071 126.422Z" fill="white"/>
<path d="M77.5245 157.964C77.6741 157.503 78.3259 157.503 78.4755 157.964L79.0103 159.609C79.0773 159.815 79.2692 159.955 79.4858 159.955H81.2164C81.7008 159.955 81.9022 160.575 81.5103 160.859L80.1102 161.877C79.935 162.004 79.8617 162.23 79.9286 162.436L80.4634 164.082C80.6131 164.542 80.0858 164.925 79.694 164.641L78.2939 163.623C78.1186 163.496 77.8814 163.496 77.7061 163.623L76.306 164.641C75.9142 164.925 75.3869 164.542 75.5366 164.082L76.0714 162.436C76.1383 162.23 76.065 162.004 75.8898 161.877L74.4897 160.859C74.0978 160.575 74.2992 159.955 74.7836 159.955H76.5142C76.7308 159.955 76.9227 159.815 76.9897 159.609L77.5245 157.964Z" fill="white"/>
<path d="M87.5245 157.964C87.6741 157.503 88.3259 157.503 88.4755 157.964L89.0103 159.609C89.0773 159.815 89.2692 159.955 89.4858 159.955H91.2164C91.7008 159.955 91.9022 160.575 91.5103 160.859L90.1102 161.877C89.935 162.004 89.8617 162.23 89.9286 162.436L90.4634 164.082C90.6131 164.542 90.0858 164.925 89.694 164.641L88.2939 163.623C88.1186 163.496 87.8814 163.496 87.7061 163.623L86.306 164.641C85.9142 164.925 85.3869 164.542 85.5366 164.082L86.0714 162.436C86.1383 162.23 86.065 162.004 85.8898 161.877L84.4897 160.859C84.0978 160.575 84.2992 159.955 84.7836 159.955H86.5142C86.7308 159.955 86.9227 159.815 86.9897 159.609L87.5245 157.964Z" fill="white"/>
<path d="M97.5245 157.964C97.6741 157.503 98.3259 157.503 98.4755 157.964L99.0103 159.609C99.0773 159.815 99.2692 159.955 99.4858 159.955H101.216C101.701 159.955 101.902 160.575 101.51 160.859L100.11 161.877C99.935 162.004 99.8617 162.23 99.9286 162.436L100.463 164.082C100.613 164.542 100.086 164.925 99.694 164.641L98.2939 163.623C98.1186 163.496 97.8814 163.496 97.7061 163.623L96.306 164.641C95.9142 164.925 95.3869 164.542 95.5366 164.082L96.0714 162.436C96.1383 162.23 96.065 162.004 95.8898 161.877L94.4897 160.859C94.0978 160.575 94.2992 159.955 94.7836 159.955H96.5142C96.7308 159.955 96.9227 159.815 96.9897 159.609L97.5245 157.964Z" fill="white"/>
<path d="M107.524 157.964C107.674 157.503 108.326 157.503 108.476 157.964L109.01 159.609C109.077 159.815 109.269 159.955 109.486 159.955H111.216C111.701 159.955 111.902 160.575 111.51 160.859L110.11 161.877C109.935 162.004 109.862 162.23 109.929 162.436L110.463 164.082C110.613 164.542 110.086 164.925 109.694 164.641L108.294 163.623C108.119 163.496 107.881 163.496 107.706 163.623L106.306 164.641C105.914 164.925 105.387 164.542 105.537 164.082L106.071 162.436C106.138 162.23 106.065 162.004 105.89 161.877L104.49 160.859C104.098 160.575 104.299 159.955 104.784 159.955H106.514C106.731 159.955 106.923 159.815 106.99 159.609L107.524 157.964Z" fill="white"/>
<path d="M133.524 157.964C133.674 157.503 134.326 157.503 134.476 157.964L135.01 159.609C135.077 159.815 135.269 159.955 135.486 159.955H137.216C137.701 159.955 137.902 160.575 137.51 160.859L136.11 161.877C135.935 162.004 135.862 162.23 135.929 162.436L136.463 164.082C136.613 164.542 136.086 164.925 135.694 164.641L134.294 163.623C134.119 163.496 133.881 163.496 133.706 163.623L132.306 164.641C131.914 164.925 131.387 164.542 131.537 164.082L132.071 162.436C132.138 162.23 132.065 162.004 131.89 161.877L130.49 160.859C130.098 160.575 130.299 159.955 130.784 159.955H132.514C132.731 159.955 132.923 159.815 132.99 159.609L133.524 157.964Z" fill="white"/>
<path d="M143.524 157.964C143.674 157.503 144.326 157.503 144.476 157.964L145.01 159.609C145.077 159.815 145.269 159.955 145.486 159.955H147.216C147.701 159.955 147.902 160.575 147.51 160.859L146.11 161.877C145.935 162.004 145.862 162.23 145.929 162.436L146.463 164.082C146.613 164.542 146.086 164.925 145.694 164.641L144.294 163.623C144.119 163.496 143.881 163.496 143.706 163.623L142.306 164.641C141.914 164.925 141.387 164.542 141.537 164.082L142.071 162.436C142.138 162.23 142.065 162.004 141.89 161.877L140.49 160.859C140.098 160.575 140.299 159.955 140.784 159.955H142.514C142.731 159.955 142.923 159.815 142.99 159.609L143.524 157.964Z" fill="white"/>
<path d="M153.524 157.964C153.674 157.503 154.326 157.503 154.476 157.964L155.01 159.609C155.077 159.815 155.269 159.955 155.486 159.955H157.216C157.701 159.955 157.902 160.575 157.51 160.859L156.11 161.877C155.935 162.004 155.862 162.23 155.929 162.436L156.463 164.082C156.613 164.542 156.086 164.925 155.694 164.641L154.294 163.623C154.119 163.496 153.881 163.496 153.706 163.623L152.306 164.641C151.914 164.925 151.387 164.542 151.537 164.082L152.071 162.436C152.138 162.23 152.065 162.004 151.89 161.877L150.49 160.859C150.098 160.575 150.299 159.955 150.784 159.955H152.514C152.731 159.955 152.923 159.815 152.99 159.609L153.524 157.964Z" fill="white"/>
<path d="M163.524 157.964C163.674 157.503 164.326 157.503 164.476 157.964L165.01 159.609C165.077 159.815 165.269 159.955 165.486 159.955H167.216C167.701 159.955 167.902 160.575 167.51 160.859L166.11 161.877C165.935 162.004 165.862 162.23 165.929 162.436L166.463 164.082C166.613 164.542 166.086 164.925 165.694 164.641L164.294 163.623C164.119 163.496 163.881 163.496 163.706 163.623L162.306 164.641C161.914 164.925 161.387 164.542 161.537 164.082L162.071 162.436C162.138 162.23 162.065 162.004 161.89 161.877L160.49 160.859C160.098 160.575 160.299 159.955 160.784 159.955H162.514C162.731 159.955 162.923 159.815 162.99 159.609L163.524 157.964Z" fill="white"/>
<path d="M189.524 157.964C189.674 157.503 190.326 157.503 190.476 157.964L191.01 159.609C191.077 159.815 191.269 159.955 191.486 159.955H193.216C193.701 159.955 193.902 160.575 193.51 160.859L192.11 161.877C191.935 162.004 191.862 162.23 191.929 162.436L192.463 164.082C192.613 164.542 192.086 164.925 191.694 164.641L190.294 163.623C190.119 163.496 189.881 163.496 189.706 163.623L188.306 164.641C187.914 164.925 187.387 164.542 187.537 164.082L188.071 162.436C188.138 162.23 188.065 162.004 187.89 161.877L186.49 160.859C186.098 160.575 186.299 159.955 186.784 159.955H188.514C188.731 159.955 188.923 159.815 188.99 159.609L189.524 157.964Z" fill="white"/>
<path d="M199.524 157.964C199.674 157.503 200.326 157.503 200.476 157.964L201.01 159.609C201.077 159.815 201.269 159.955 201.486 159.955H203.216C203.701 159.955 203.902 160.575 203.51 160.859L202.11 161.877C201.935 162.004 201.862 162.23 201.929 162.436L202.463 164.082C202.613 164.542 202.086 164.925 201.694 164.641L200.294 163.623C200.119 163.496 199.881 163.496 199.706 163.623L198.306 164.641C197.914 164.925 197.387 164.542 197.537 164.082L198.071 162.436C198.138 162.23 198.065 162.004 197.89 161.877L196.49 160.859C196.098 160.575 196.299 159.955 196.784 159.955H198.514C198.731 159.955 198.923 159.815 198.99 159.609L199.524 157.964Z" fill="white"/>
<path d="M209.524 157.964C209.674 157.503 210.326 157.503 210.476 157.964L211.01 159.609C211.077 159.815 211.269 159.955 211.486 159.955H213.216C213.701 159.955 213.902 160.575 213.51 160.859L212.11 161.877C211.935 162.004 211.862 162.23 211.929 162.436L212.463 164.082C212.613 164.542 212.086 164.925 211.694 164.641L210.294 163.623C210.119 163.496 209.881 163.496 209.706 163.623L208.306 164.641C207.914 164.925 207.387 164.542 207.537 164.082L208.071 162.436C208.138 162.23 208.065 162.004 207.89 161.877L206.49 160.859C206.098 160.575 206.299 159.955 206.784 159.955H208.514C208.731 159.955 208.923 159.815 208.99 159.609L209.524 157.964Z" fill="white"/>
<path d="M219.524 157.964C219.674 157.503 220.326 157.503 220.476 157.964L221.01 159.609C221.077 159.815 221.269 159.955 221.486 159.955H223.216C223.701 159.955 223.902 160.575 223.51 160.859L222.11 161.877C221.935 162.004 221.862 162.23 221.929 162.436L222.463 164.082C222.613 164.542 222.086 164.925 221.694 164.641L220.294 163.623C220.119 163.496 219.881 163.496 219.706 163.623L218.306 164.641C217.914 164.925 217.387 164.542 217.537 164.082L218.071 162.436C218.138 162.23 218.065 162.004 217.89 161.877L216.49 160.859C216.098 160.575 216.299 159.955 216.784 159.955H218.514C218.731 159.955 218.923 159.815 218.99 159.609L219.524 157.964Z" fill="white"/>
<path d="M245.672 167.192C244.957 167.192 244.312 167.064 243.736 166.808C243.16 166.541 242.696 166.147 242.344 165.624C242.003 165.101 241.821 164.451 241.8 163.672H243.16C243.171 164.312 243.395 164.867 243.832 165.336C244.269 165.795 244.883 166.024 245.672 166.024C246.461 166.024 247.053 165.805 247.448 165.368C247.853 164.931 248.056 164.403 248.056 163.784C248.056 163.261 247.928 162.835 247.672 162.504C247.427 162.173 247.091 161.928 246.664 161.768C246.248 161.608 245.789 161.528 245.288 161.528H244.456V160.392H245.288C246.013 160.392 246.579 160.227 246.984 159.896C247.4 159.565 247.608 159.101 247.608 158.504C247.608 158.003 247.443 157.592 247.112 157.272C246.792 156.941 246.312 156.776 245.672 156.776C245.053 156.776 244.557 156.963 244.184 157.336C243.811 157.699 243.603 158.157 243.56 158.712H242.2C242.232 158.104 242.392 157.565 242.68 157.096C242.979 156.627 243.384 156.264 243.896 156.008C244.408 155.741 245 155.608 245.672 155.608C246.397 155.608 247 155.736 247.48 155.992C247.971 156.248 248.339 156.589 248.584 157.016C248.84 157.443 248.968 157.912 248.968 158.424C248.968 158.989 248.813 159.507 248.504 159.976C248.195 160.435 247.731 160.744 247.112 160.904C247.773 161.043 248.323 161.357 248.76 161.848C249.197 162.339 249.416 162.984 249.416 163.784C249.416 164.403 249.272 164.973 248.984 165.496C248.707 166.008 248.291 166.419 247.736 166.728C247.181 167.037 246.493 167.192 245.672 167.192ZM255.622 167.192C254.812 167.192 254.129 167.043 253.574 166.744C253.02 166.435 252.572 166.024 252.23 165.512C251.9 165 251.654 164.429 251.494 163.8C251.345 163.16 251.27 162.509 251.27 161.848C251.27 160.611 251.441 159.528 251.782 158.6C252.124 157.661 252.614 156.931 253.254 156.408C253.905 155.875 254.689 155.608 255.606 155.608C256.31 155.608 256.913 155.747 257.414 156.024C257.916 156.301 258.31 156.675 258.598 157.144C258.897 157.603 259.084 158.115 259.158 158.68H257.91C257.793 158.072 257.532 157.603 257.126 157.272C256.721 156.941 256.209 156.776 255.59 156.776C254.748 156.776 254.038 157.176 253.462 157.976C252.897 158.765 252.593 160.003 252.55 161.688C252.806 161.187 253.212 160.755 253.766 160.392C254.332 160.019 255.009 159.832 255.798 159.832C256.438 159.832 257.036 159.981 257.59 160.28C258.156 160.579 258.614 161 258.966 161.544C259.318 162.077 259.494 162.707 259.494 163.432C259.494 164.061 259.34 164.664 259.03 165.24C258.721 165.816 258.273 166.285 257.686 166.648C257.11 167.011 256.422 167.192 255.622 167.192ZM255.526 166.008C256.028 166.008 256.476 165.901 256.87 165.688C257.265 165.475 257.574 165.181 257.798 164.808C258.022 164.424 258.134 163.987 258.134 163.496C258.134 162.739 257.884 162.136 257.382 161.688C256.892 161.229 256.273 161 255.526 161C255.025 161 254.577 161.117 254.182 161.352C253.788 161.576 253.473 161.88 253.238 162.264C253.014 162.648 252.902 163.064 252.902 163.512C252.902 163.992 253.014 164.424 253.238 164.808C253.473 165.181 253.788 165.475 254.182 165.688C254.577 165.901 255.025 166.008 255.526 166.008ZM265.7 167.192C264.89 167.192 264.207 167.043 263.652 166.744C263.098 166.435 262.65 166.024 262.308 165.512C261.978 165 261.732 164.429 261.572 163.8C261.423 163.16 261.348 162.509 261.348 161.848C261.348 160.611 261.519 159.528 261.86 158.6C262.202 157.661 262.692 156.931 263.332 156.408C263.983 155.875 264.767 155.608 265.684 155.608C266.388 155.608 266.991 155.747 267.492 156.024C267.994 156.301 268.388 156.675 268.676 157.144C268.975 157.603 269.162 158.115 269.236 158.68H267.988C267.871 158.072 267.61 157.603 267.204 157.272C266.799 156.941 266.287 156.776 265.668 156.776C264.826 156.776 264.116 157.176 263.54 157.976C262.975 158.765 262.671 160.003 262.628 161.688C262.884 161.187 263.29 160.755 263.844 160.392C264.41 160.019 265.087 159.832 265.876 159.832C266.516 159.832 267.114 159.981 267.668 160.28C268.234 160.579 268.692 161 269.044 161.544C269.396 162.077 269.572 162.707 269.572 163.432C269.572 164.061 269.418 164.664 269.108 165.24C268.799 165.816 268.351 166.285 267.764 166.648C267.188 167.011 266.5 167.192 265.7 167.192ZM265.604 166.008C266.106 166.008 266.554 165.901 266.948 165.688C267.343 165.475 267.652 165.181 267.876 164.808C268.1 164.424 268.212 163.987 268.212 163.496C268.212 162.739 267.962 162.136 267.46 161.688C266.97 161.229 266.351 161 265.604 161C265.103 161 264.655 161.117 264.26 161.352C263.866 161.576 263.551 161.88 263.316 162.264C263.092 162.648 262.98 163.064 262.98 163.512C262.98 163.992 263.092 164.424 263.316 164.808C263.551 165.181 263.866 165.475 264.26 165.688C264.655 165.901 265.103 166.008 265.604 166.008ZM272.253 167L276.701 156.952H270.557V155.8H278.077V156.808L273.677 167H272.253Z" fill="white"/>
<circle cx="368" cy="106" r="4" fill="white"/>
<circle cx="379" cy="106" r="4" fill="white"/>
<circle cx="390" cy="106" r="4" fill="white"/>
<defs>
<linearGradient id="paint0_linear_2_465" x1="-74.8" y1="-24.5" x2="108.998" y2="373.012" gradientUnits="userSpaceOnUse">
<stop stop-color="#03D17A"/>
<stop offset="0.922731" stop-color="#7AC231"/>
</linearGradient>
</defs>
</svg>
