<svg width="116" height="34" viewBox="0 0 116 34" fill="none" xmlns="http://www.w3.org/2000/svg">
<rect x="115.75" y="33.75" width="115.5" height="33.5" rx="4.75" transform="rotate(-180 115.75 33.75)" fill="#222222" stroke="#9B9B9B" stroke-width="0.5"/>
<path d="M12.9 21.1913V13.5233H13.62V20.5913H17.532V21.1913H12.9ZM20.1985 21.3113C19.6865 21.3113 19.2745 21.1793 18.9625 20.9153C18.6505 20.6433 18.4945 20.2713 18.4945 19.7993V19.7873C18.4945 19.5713 18.5345 19.3793 18.6145 19.2113C18.6945 19.0433 18.7905 18.9073 18.9025 18.8033C19.0145 18.6993 19.1785 18.6033 19.3945 18.5153C19.6105 18.4193 19.7985 18.3473 19.9585 18.2993C20.1265 18.2513 20.3585 18.1913 20.6545 18.1193C21.2225 17.9913 21.6065 17.8593 21.8065 17.7233C22.0065 17.5793 22.1065 17.3673 22.1065 17.0873V17.0633C22.1065 16.3193 21.6425 15.9473 20.7145 15.9473C19.9865 15.9473 19.3545 16.1873 18.8185 16.6673V16.1633C18.9785 15.9553 19.2305 15.7713 19.5745 15.6113C19.9185 15.4433 20.3225 15.3593 20.7865 15.3593C21.4265 15.3593 21.9185 15.5233 22.2625 15.8513C22.6065 16.1793 22.7785 16.6473 22.7785 17.2553V19.7753C22.7785 20.3593 22.7825 20.7273 22.7905 20.8793L22.8145 21.1913H22.2985C22.2825 21.1433 22.2625 21.0753 22.2385 20.9873C22.2225 20.8913 22.2105 20.8273 22.2025 20.7953C22.1385 20.4753 22.1065 20.1753 22.1065 19.8953C22.0025 20.3353 21.7825 20.6833 21.4465 20.9393C21.1185 21.1873 20.7025 21.3113 20.1985 21.3113ZM20.3665 20.8193C20.8465 20.8193 21.2545 20.6553 21.5905 20.3273C21.9345 19.9913 22.1065 19.4993 22.1065 18.8513V17.9273C21.8745 18.1673 21.4065 18.3873 20.7025 18.5873C20.1185 18.7713 19.7225 18.9393 19.5145 19.0913C19.3065 19.2353 19.2025 19.4513 19.2025 19.7393V19.7873C19.2025 20.1073 19.3025 20.3593 19.5025 20.5433C19.7025 20.7273 19.9905 20.8193 20.3665 20.8193ZM25.9394 21.2993C25.1074 21.2993 24.4594 21.0833 23.9954 20.6513V20.1233C24.1874 20.2593 24.3474 20.3633 24.4754 20.4353C24.6114 20.5073 24.8074 20.5793 25.0634 20.6513C25.3194 20.7233 25.5954 20.7593 25.8914 20.7593C26.8194 20.7593 27.2834 20.3913 27.2834 19.6553C27.2834 19.2393 27.1274 18.9593 26.8154 18.8153C26.6314 18.7273 26.3114 18.6433 25.8554 18.5633C25.4074 18.4753 25.0834 18.3913 24.8834 18.3113C24.3394 18.0793 24.0674 17.6233 24.0674 16.9433C24.0674 16.4393 24.2474 16.0513 24.6074 15.7793C24.9674 15.4993 25.4274 15.3593 25.9874 15.3593C26.7314 15.3593 27.2794 15.5353 27.6314 15.8873V16.3913C27.1914 16.0713 26.6594 15.9113 26.0354 15.9113C25.6274 15.9113 25.3034 15.9953 25.0634 16.1633C24.8234 16.3313 24.7034 16.5873 24.7034 16.9313C24.7034 17.3313 24.8514 17.6033 25.1474 17.7473C25.3394 17.8433 25.6754 17.9353 26.1554 18.0233C26.6354 18.1113 26.9714 18.1993 27.1634 18.2873C27.4274 18.4073 27.6234 18.5673 27.7514 18.7673C27.8794 18.9673 27.9434 19.2513 27.9434 19.6193C27.9434 20.1553 27.7594 20.5713 27.3914 20.8673C27.0234 21.1553 26.5394 21.2993 25.9394 21.2993ZM31.122 21.2993C30.642 21.2993 30.25 21.1673 29.946 20.9033C29.65 20.6393 29.502 20.2073 29.502 19.6073V16.0433H28.686V15.6473C29.118 15.6153 29.386 15.5073 29.49 15.3233C29.602 15.1393 29.694 14.7073 29.766 14.0273H30.186V15.4913H32.094V16.0433H30.186V19.6073C30.186 20.0233 30.27 20.3193 30.438 20.4953C30.606 20.6633 30.846 20.7473 31.158 20.7473C31.566 20.7473 31.922 20.6513 32.226 20.4593V20.8313C32.042 21.1433 31.674 21.2993 31.122 21.2993ZM35.4607 14.1473V13.5233H40.2127V14.3873L37.3087 21.1913H36.5647L39.5767 14.1473H35.4607ZM43.931 21.1913V15.4913H44.423L44.519 15.9473C44.583 16.3153 44.615 16.6433 44.615 16.9313V17.0753C44.703 16.5313 44.935 16.1113 45.311 15.8153C45.695 15.5113 46.127 15.3593 46.607 15.3593C47.663 15.3593 48.199 15.9473 48.215 17.1233C48.303 16.5633 48.543 16.1313 48.935 15.8273C49.327 15.5153 49.767 15.3593 50.255 15.3593C51.359 15.3593 51.911 15.9793 51.911 17.2193V21.1913H51.227V17.0993C51.227 16.7073 51.139 16.4153 50.963 16.2233C50.787 16.0313 50.499 15.9353 50.099 15.9353C49.563 15.9353 49.127 16.1233 48.791 16.4993C48.455 16.8673 48.279 17.3673 48.263 17.9993V21.1913H47.579V17.0993C47.579 16.7073 47.491 16.4153 47.315 16.2233C47.139 16.0313 46.851 15.9353 46.451 15.9353C45.915 15.9353 45.479 16.1193 45.143 16.4873C44.815 16.8553 44.639 17.3593 44.615 17.9993V21.1913H43.931ZM55.8628 21.2993C55.0948 21.2993 54.4588 21.0353 53.9548 20.5073C53.4508 19.9713 53.1988 19.2193 53.1988 18.2513V18.2273C53.1988 17.3633 53.4428 16.6713 53.9308 16.1513C54.4188 15.6233 55.0628 15.3593 55.8628 15.3593C56.6548 15.3593 57.2948 15.6193 57.7828 16.1393C58.2708 16.6513 58.5148 17.3393 58.5148 18.2033V18.2273C58.5148 19.2033 58.2628 19.9593 57.7588 20.4953C57.2548 21.0313 56.6228 21.2993 55.8628 21.2993ZM55.8628 20.7953C56.4548 20.7953 56.9268 20.5953 57.2788 20.1953C57.6388 19.7873 57.8188 19.1713 57.8188 18.3473V18.0113C57.8188 17.3473 57.6428 16.8273 57.2908 16.4513C56.9388 16.0673 56.4628 15.8753 55.8628 15.8753C55.2628 15.8753 54.7868 16.0673 54.4348 16.4513C54.0828 16.8273 53.9068 17.3473 53.9068 18.0113V18.3473C53.9068 19.1713 54.0868 19.7873 54.4468 20.1953C54.8068 20.5953 55.2788 20.7953 55.8628 20.7953ZM59.868 21.1913V15.4913H60.36L60.456 15.9473C60.52 16.3153 60.552 16.6433 60.552 16.9313V17.0993C60.64 16.5473 60.892 16.1193 61.308 15.8153C61.724 15.5113 62.188 15.3593 62.7 15.3593C63.908 15.3593 64.512 15.9913 64.512 17.2553V21.1913H63.828V17.1353C63.828 16.7273 63.724 16.4273 63.516 16.2353C63.316 16.0353 62.992 15.9353 62.544 15.9353C61.976 15.9353 61.504 16.1233 61.128 16.4993C60.76 16.8753 60.568 17.3753 60.552 17.9993V21.1913H59.868ZM68.052 21.2993C67.572 21.2993 67.18 21.1673 66.876 20.9033C66.58 20.6393 66.432 20.2073 66.432 19.6073V16.0433H65.616V15.6473C66.048 15.6153 66.316 15.5073 66.42 15.3233C66.532 15.1393 66.624 14.7073 66.696 14.0273H67.116V15.4913H69.024V16.0433H67.116V19.6073C67.116 20.0233 67.2 20.3193 67.368 20.4953C67.536 20.6633 67.776 20.7473 68.088 20.7473C68.496 20.7473 68.852 20.6513 69.156 20.4593V20.8313C68.972 21.1433 68.604 21.2993 68.052 21.2993ZM70.4027 21.1913V13.1153H71.0867V17.0993C71.1747 16.5473 71.4267 16.1193 71.8427 15.8153C72.2587 15.5113 72.7227 15.3593 73.2347 15.3593C74.4427 15.3593 75.0467 15.9913 75.0467 17.2553V21.1913H74.3627V17.1353C74.3627 16.7273 74.2587 16.4273 74.0507 16.2353C73.8507 16.0353 73.5267 15.9353 73.0787 15.9353C72.5107 15.9353 72.0387 16.1233 71.6627 16.4993C71.2947 16.8753 71.1027 17.3753 71.0867 17.9993V21.1913H70.4027ZM78.2027 21.2993C77.3707 21.2993 76.7227 21.0833 76.2587 20.6513V20.1233C76.4507 20.2593 76.6107 20.3633 76.7387 20.4353C76.8747 20.5073 77.0707 20.5793 77.3267 20.6513C77.5827 20.7233 77.8587 20.7593 78.1547 20.7593C79.0827 20.7593 79.5467 20.3913 79.5467 19.6553C79.5467 19.2393 79.3907 18.9593 79.0787 18.8153C78.8947 18.7273 78.5747 18.6433 78.1187 18.5633C77.6707 18.4753 77.3467 18.3913 77.1467 18.3113C76.6027 18.0793 76.3307 17.6233 76.3307 16.9433C76.3307 16.4393 76.5107 16.0513 76.8707 15.7793C77.2307 15.4993 77.6907 15.3593 78.2507 15.3593C78.9947 15.3593 79.5427 15.5353 79.8947 15.8873V16.3913C79.4547 16.0713 78.9227 15.9113 78.2987 15.9113C77.8907 15.9113 77.5667 15.9953 77.3267 16.1633C77.0867 16.3313 76.9667 16.5873 76.9667 16.9313C76.9667 17.3313 77.1147 17.6033 77.4107 17.7473C77.6027 17.8433 77.9387 17.9353 78.4187 18.0233C78.8987 18.1113 79.2347 18.1993 79.4267 18.2873C79.6907 18.4073 79.8867 18.5673 80.0147 18.7673C80.1427 18.9673 80.2067 19.2513 80.2067 19.6193C80.2067 20.1553 80.0227 20.5713 79.6547 20.8673C79.2867 21.1553 78.8027 21.2993 78.2027 21.2993Z" fill="#F5F5F5"/>
<path fill-rule="evenodd" clip-rule="evenodd" d="M100.944 11C101.183 11 101.376 11.1935 101.376 11.432L101.376 11.9202C102.217 11.9779 102.916 12.2659 103.41 12.7613C103.95 13.3032 104.234 14.0825 104.231 15.0172V20.2714C104.231 22.1905 103.012 23.3826 101.051 23.3826H96.1797C94.2187 23.3826 93 22.1737 93 20.2277V15.016C93 13.206 94.0868 12.0441 95.8593 11.9204L95.8597 11.432C95.8597 11.1935 96.0532 11 96.2916 11C96.5301 11 96.7236 11.1935 96.7236 11.432L96.7234 11.9094H100.512L100.512 11.432C100.512 11.1935 100.706 11 100.944 11ZM103.367 16.1281H93.8639V20.2277C93.8639 21.7055 94.6863 22.5187 96.1797 22.5187H101.051C102.544 22.5187 103.367 21.7205 103.367 20.2714L103.367 16.1281ZM101.179 19.7521C101.417 19.7521 101.611 19.9456 101.611 20.184C101.611 20.4224 101.417 20.616 101.179 20.616C100.941 20.616 100.745 20.4224 100.745 20.184C100.745 19.9456 100.935 19.7521 101.174 19.7521H101.179ZM98.6232 19.7521C98.8617 19.7521 99.0552 19.9456 99.0552 20.184C99.0552 20.4224 98.8617 20.616 98.6232 20.616C98.3848 20.616 98.189 20.4224 98.189 20.184C98.189 19.9456 98.3796 19.7521 98.6181 19.7521H98.6232ZM96.0622 19.7521C96.3006 19.7521 96.4941 19.9456 96.4941 20.184C96.4941 20.4224 96.3006 20.616 96.0622 20.616C95.8237 20.616 95.6274 20.4224 95.6274 20.184C95.6274 19.9456 95.8186 19.7521 96.057 19.7521H96.0622ZM101.179 17.5136C101.417 17.5136 101.611 17.7071 101.611 17.9455C101.611 18.184 101.417 18.3775 101.179 18.3775C100.941 18.3775 100.745 18.184 100.745 17.9455C100.745 17.7071 100.935 17.5136 101.174 17.5136H101.179ZM98.6232 17.5136C98.8617 17.5136 99.0552 17.7071 99.0552 17.9455C99.0552 18.184 98.8617 18.3775 98.6232 18.3775C98.3848 18.3775 98.189 18.184 98.189 17.9455C98.189 17.7071 98.3796 17.5136 98.6181 17.5136H98.6232ZM96.0622 17.5136C96.3006 17.5136 96.4941 17.7071 96.4941 17.9455C96.4941 18.184 96.3006 18.3775 96.0622 18.3775C95.8237 18.3775 95.6274 18.184 95.6274 17.9455C95.6274 17.7071 95.8186 17.5136 96.057 17.5136H96.0622ZM100.512 12.7733H96.7234L96.7236 13.3273C96.7236 13.5658 96.5301 13.7593 96.2916 13.7593C96.0532 13.7593 95.8597 13.5658 95.8597 13.3273L95.8594 12.7864C94.5692 12.8948 93.8639 13.6769 93.8639 15.016V15.2642H103.367L103.367 15.016C103.369 14.3048 103.178 13.7519 102.798 13.3718C102.465 13.0376 101.978 12.838 101.377 12.7867L101.376 13.3273C101.376 13.5658 101.183 13.7593 100.944 13.7593C100.706 13.7593 100.512 13.5658 100.512 13.3273L100.512 12.7733Z" fill="#9B9B9B"/>
</svg>
