<svg width="119" height="27" viewBox="0 0 119 27" fill="none" xmlns="http://www.w3.org/2000/svg">
<path d="M0.536 26.672V6.48H3.768C3.91733 6.82133 4.04533 7.19467 4.152 7.6C4.408 8.368 4.536 9.24267 4.536 10.224V10.384C4.792 9.12533 5.41067 8.10133 6.392 7.312C7.37333 6.50133 8.57867 6.096 10.008 6.096C11.9707 6.096 13.5067 6.82133 14.616 8.272C15.7253 9.70133 16.28 11.6 16.28 13.968V14C16.28 16.6453 15.672 18.704 14.456 20.176C13.2613 21.6267 11.704 22.352 9.784 22.352C8.39733 22.352 7.26667 22.0213 6.392 21.36C5.51733 20.6987 4.92 19.7813 4.6 18.608V26.672H0.536ZM8.6 19.536C10.9893 19.536 12.184 17.8187 12.184 14.384V13.328C12.184 11.984 11.8747 10.9387 11.256 10.192C10.6373 9.44533 9.752 9.072 8.6 9.072C7.448 9.072 6.488 9.47733 5.72 10.288C4.97333 11.0773 4.6 12.176 4.6 13.584V14.192C4.6 15.984 4.97333 17.328 5.72 18.224C6.46667 19.0987 7.42667 19.536 8.6 19.536ZM22.3425 22.416C20.9985 22.416 19.9105 22.0427 19.0785 21.296C18.2465 20.528 17.8305 19.504 17.8305 18.224V18.192C17.8305 17.6587 17.8945 17.1787 18.0225 16.752C18.1505 16.3253 18.3852 15.952 18.7265 15.632C19.0892 15.312 19.3985 15.056 19.6545 14.864C19.9105 14.672 20.3585 14.48 20.9985 14.288C21.6385 14.0747 22.0972 13.936 22.3745 13.872C22.6518 13.7867 23.1852 13.648 23.9745 13.456C25.1478 13.1787 25.9478 12.912 26.3745 12.656C26.8012 12.3787 27.0145 11.984 27.0145 11.472V11.376C27.0145 10.0747 25.9585 9.424 23.8465 9.424C22.8225 9.424 21.8412 9.59467 20.9025 9.936C19.9638 10.256 19.2598 10.5973 18.7905 10.96V8.368C20.0492 6.85333 22.0332 6.096 24.7425 6.096C28.9452 6.096 31.0465 8.176 31.0465 12.336V17.744C31.0465 19.6 31.0785 20.7413 31.1425 21.168C31.1638 21.3813 31.2065 21.6587 31.2705 22H27.7825C27.6972 21.8507 27.5905 21.584 27.4625 21.2C27.2278 20.4533 27.0998 19.7813 27.0785 19.184C26.4598 21.3387 24.8812 22.416 22.3425 22.416ZM24.1025 19.984C24.8918 19.984 25.5745 19.6533 26.1505 18.992C26.7265 18.3093 27.0145 17.392 27.0145 16.24V14.16C26.6092 14.5013 25.8518 14.896 24.7425 15.344C23.6972 15.728 22.9718 16.0907 22.5665 16.432C22.1612 16.7733 21.9585 17.2427 21.9585 17.84V18C21.9585 19.3227 22.6732 19.984 24.1025 19.984ZM36.7048 26.992C35.1048 26.992 33.9421 26.6613 33.2168 26V23.536C34.1554 23.8347 35.1261 23.984 36.1288 23.984C37.5581 23.984 38.4541 23.3973 38.8168 22.224L39.0088 21.648H37.7608L32.2248 6.48H36.3848L40.4167 18.384L44.2568 6.48H48.0328L42.5928 21.968C41.9954 23.7387 41.2381 25.0187 40.3208 25.808C39.4034 26.5973 38.1981 26.992 36.7048 26.992ZM53.1735 26.992C51.5735 26.992 50.4108 26.6613 49.6855 26V23.536C50.6242 23.8347 51.5948 23.984 52.5975 23.984C54.0268 23.984 54.9228 23.3973 55.2855 22.224L55.4775 21.648H54.2295L48.6935 6.48H52.8535L56.8855 18.384L60.7255 6.48H64.5015L59.0615 21.968C58.4642 23.7387 57.7068 25.0187 56.7895 25.808C55.8722 26.5973 54.6668 26.992 53.1735 26.992ZM75.534 22.352C72.718 22.352 70.9153 20.9653 70.126 18.192C70.0193 19.664 69.8807 20.6347 69.71 21.104C69.6033 21.4667 69.486 21.7653 69.358 22H66.286V0.463999H70.35V10.096C70.6913 8.944 71.3207 7.99467 72.238 7.248C73.1553 6.48 74.3287 6.096 75.758 6.096C77.7207 6.096 79.2567 6.82133 80.366 8.272C81.4753 9.70133 82.03 11.6 82.03 13.968V14C82.03 16.6453 81.422 18.704 80.206 20.176C79.0113 21.6267 77.454 22.352 75.534 22.352ZM74.318 19.568C75.4487 19.568 76.334 19.1307 76.974 18.256C77.614 17.3813 77.934 16.1013 77.934 14.416V13.36C77.934 12.016 77.614 10.9707 76.974 10.224C76.3553 9.456 75.47 9.072 74.318 9.072C73.1873 9.072 72.238 9.47733 71.47 10.288C70.7233 11.0987 70.35 12.208 70.35 13.616V14.224C70.35 15.9947 70.7233 17.328 71.47 18.224C72.2167 19.12 73.166 19.568 74.318 19.568ZM84.6328 22V0.463999H88.6328V22H84.6328ZM105.097 15.088H95.3053C95.3906 16.624 95.8279 17.712 96.6173 18.352C97.4066 18.9707 98.6013 19.28 100.201 19.28C102.036 19.28 103.593 18.928 104.873 18.224V20.464C104.511 20.976 103.828 21.424 102.825 21.808C101.844 22.1707 100.66 22.352 99.2733 22.352C96.7133 22.352 94.7186 21.6587 93.2893 20.272C91.8813 18.864 91.1773 16.848 91.1773 14.224V14.192C91.1773 11.7387 91.8813 9.776 93.2893 8.304C94.6973 6.832 96.5106 6.096 98.7292 6.096C100.948 6.096 102.623 6.704 103.753 7.92C104.905 9.136 105.481 10.704 105.481 12.624C105.481 13.4987 105.353 14.32 105.097 15.088ZM98.7933 8.752C97.7479 8.752 96.9159 9.11467 96.2973 9.84C95.6786 10.5653 95.3479 11.632 95.3053 13.04H101.833V12.72C101.833 10.0747 100.82 8.752 98.7933 8.752Z" fill="white"/>
<path d="M106.025 26.448V23.888H118.281V26.448H106.025Z" fill="#7AC231"/>
</svg>
