<svg width="207" height="114" viewBox="0 0 207 114" fill="none" xmlns="http://www.w3.org/2000/svg">
<path d="M30.304 78.192C29.1947 78.192 28.224 77.9467 27.392 77.456C26.56 76.9653 25.9093 76.288 25.44 75.424C24.9707 74.5493 24.736 73.5413 24.736 72.4C24.736 71.2587 24.9707 70.256 25.44 69.392C25.9093 68.5173 26.56 67.8347 27.392 67.344C28.224 66.8533 29.1947 66.608 30.304 66.608C31.4133 66.608 32.384 66.8533 33.216 67.344C34.048 67.8347 34.6933 68.5173 35.152 69.392C35.6213 70.256 35.856 71.2587 35.856 72.4C35.856 73.5413 35.6213 74.5493 35.152 75.424C34.6933 76.288 34.048 76.9653 33.216 77.456C32.384 77.9467 31.4133 78.192 30.304 78.192ZM30.304 76.672C31.072 76.672 31.7387 76.5013 32.304 76.16C32.88 75.8187 33.328 75.328 33.648 74.688C33.968 74.048 34.128 73.2853 34.128 72.4C34.128 71.5147 33.968 70.752 33.648 70.112C33.328 69.472 32.88 68.9813 32.304 68.64C31.7387 68.2987 31.072 68.128 30.304 68.128C29.536 68.128 28.864 68.2987 28.288 68.64C27.712 68.9813 27.264 69.472 26.944 70.112C26.6347 70.752 26.48 71.5147 26.48 72.4C26.48 73.2853 26.6347 74.048 26.944 74.688C27.264 75.328 27.712 75.8187 28.288 76.16C28.864 76.5013 29.536 76.672 30.304 76.672ZM37.6814 78V70.064H39.1854L39.3134 71.456C39.5587 70.9653 39.916 70.5813 40.3854 70.304C40.8654 70.016 41.4147 69.872 42.0334 69.872C42.9934 69.872 43.7454 70.1707 44.2894 70.768C44.844 71.3653 45.1214 72.256 45.1214 73.44V78H43.4414V73.616C43.4414 72.08 42.812 71.312 41.5534 71.312C40.924 71.312 40.4014 71.536 39.9854 71.984C39.58 72.432 39.3774 73.072 39.3774 73.904V78H37.6814ZM54.8621 78.192C54.0835 78.192 53.3901 78.0213 52.7821 77.68C52.1848 77.328 51.7155 76.8427 51.3741 76.224C51.0328 75.6053 50.8621 74.8853 50.8621 74.064C50.8621 73.232 51.0275 72.5013 51.3581 71.872C51.6995 71.2427 52.1688 70.752 52.7661 70.4C53.3741 70.048 54.0781 69.872 54.8781 69.872C55.6568 69.872 56.3341 70.048 56.9101 70.4C57.4861 70.7413 57.9341 71.2 58.2541 71.776C58.5741 72.352 58.7341 72.9867 58.7341 73.68C58.7341 73.7867 58.7288 73.904 58.7181 74.032C58.7181 74.1493 58.7128 74.2827 58.7021 74.432H52.5261C52.5795 75.2 52.8301 75.7867 53.2781 76.192C53.7368 76.5867 54.2648 76.784 54.8621 76.784C55.3421 76.784 55.7421 76.6773 56.0621 76.464C56.3928 76.24 56.6381 75.9413 56.7981 75.568H58.4941C58.2808 76.3147 57.8541 76.9387 57.2141 77.44C56.5848 77.9413 55.8008 78.192 54.8621 78.192ZM54.8621 71.264C54.2968 71.264 53.7955 71.4347 53.3581 71.776C52.9208 72.1067 52.6541 72.608 52.5581 73.28H57.0381C57.0061 72.6613 56.7875 72.1707 56.3821 71.808C55.9768 71.4453 55.4701 71.264 54.8621 71.264ZM62.4054 78L59.4294 70.064H61.2054L63.4134 76.384L65.6214 70.064H67.3814L64.4214 78H62.4054ZM72.0809 78.192C71.3022 78.192 70.6089 78.0213 70.0009 77.68C69.4035 77.328 68.9342 76.8427 68.5929 76.224C68.2515 75.6053 68.0809 74.8853 68.0809 74.064C68.0809 73.232 68.2462 72.5013 68.5769 71.872C68.9182 71.2427 69.3875 70.752 69.9849 70.4C70.5929 70.048 71.2969 69.872 72.0969 69.872C72.8755 69.872 73.5529 70.048 74.1289 70.4C74.7049 70.7413 75.1529 71.2 75.4729 71.776C75.7929 72.352 75.9529 72.9867 75.9529 73.68C75.9529 73.7867 75.9475 73.904 75.9369 74.032C75.9369 74.1493 75.9315 74.2827 75.9209 74.432H69.7449C69.7982 75.2 70.0489 75.7867 70.4969 76.192C70.9555 76.5867 71.4835 76.784 72.0809 76.784C72.5609 76.784 72.9609 76.6773 73.2809 76.464C73.6115 76.24 73.8569 75.9413 74.0169 75.568H75.7129C75.4995 76.3147 75.0729 76.9387 74.4329 77.44C73.8035 77.9413 73.0195 78.192 72.0809 78.192ZM72.0809 71.264C71.5155 71.264 71.0142 71.4347 70.5769 71.776C70.1395 72.1067 69.8729 72.608 69.7769 73.28H74.2569C74.2249 72.6613 74.0062 72.1707 73.6009 71.808C73.1955 71.4453 72.6889 71.264 72.0809 71.264ZM77.7126 78V70.064H79.2326L79.3766 71.568C79.654 71.0453 80.038 70.6347 80.5286 70.336C81.03 70.0267 81.6326 69.872 82.3366 69.872V71.648H81.8726C81.4033 71.648 80.982 71.728 80.6086 71.888C80.246 72.0373 79.9526 72.2987 79.7286 72.672C79.5153 73.0347 79.4086 73.5413 79.4086 74.192V78H77.7126ZM84.7188 81.52L86.6228 77.344H86.1588L83.0228 70.064H84.8628L87.2948 75.936L89.8388 70.064H91.6308L86.5108 81.52H84.7188ZM100.384 78C99.6057 78 98.987 77.8133 98.5284 77.44C98.0697 77.056 97.8404 76.3787 97.8404 75.408V71.488H96.4804V70.064H97.8404L98.0484 68.048H99.5364V70.064H101.776V71.488H99.5364V75.408C99.5364 75.8453 99.627 76.1493 99.8084 76.32C100 76.48 100.326 76.56 100.784 76.56H101.696V78H100.384ZM103.525 78V70.064H105.045L105.189 71.568C105.466 71.0453 105.85 70.6347 106.341 70.336C106.842 70.0267 107.445 69.872 108.149 69.872V71.648H107.685C107.216 71.648 106.794 71.728 106.421 71.888C106.058 72.0373 105.765 72.2987 105.541 72.672C105.328 73.0347 105.221 73.5413 105.221 74.192V78H103.525ZM112.291 78.192C111.619 78.192 111.065 78.08 110.627 77.856C110.19 77.632 109.865 77.3387 109.651 76.976C109.438 76.6027 109.331 76.1973 109.331 75.76C109.331 74.992 109.63 74.384 110.227 73.936C110.825 73.488 111.678 73.264 112.787 73.264H114.867V73.12C114.867 72.5013 114.697 72.0373 114.355 71.728C114.025 71.4187 113.593 71.264 113.059 71.264C112.59 71.264 112.179 71.3813 111.827 71.616C111.486 71.84 111.278 72.176 111.203 72.624H109.507C109.561 72.048 109.753 71.5573 110.083 71.152C110.425 70.736 110.851 70.4213 111.363 70.208C111.886 69.984 112.457 69.872 113.075 69.872C114.185 69.872 115.043 70.1653 115.651 70.752C116.259 71.328 116.563 72.1173 116.563 73.12V78H115.091L114.947 76.64C114.723 77.0773 114.398 77.4453 113.971 77.744C113.545 78.0427 112.985 78.192 112.291 78.192ZM112.627 76.816C113.086 76.816 113.47 76.7093 113.779 76.496C114.099 76.272 114.345 75.9787 114.515 75.616C114.697 75.2533 114.809 74.8533 114.851 74.416H112.963C112.291 74.416 111.811 74.5333 111.523 74.768C111.246 75.0027 111.107 75.296 111.107 75.648C111.107 76.0107 111.241 76.2987 111.507 76.512C111.785 76.7147 112.158 76.816 112.627 76.816ZM118.541 78V70.064H120.045L120.173 71.456C120.418 70.9653 120.775 70.5813 121.245 70.304C121.725 70.016 122.274 69.872 122.893 69.872C123.853 69.872 124.605 70.1707 125.149 70.768C125.703 71.3653 125.981 72.256 125.981 73.44V78H124.301V73.616C124.301 72.08 123.671 71.312 122.413 71.312C121.783 71.312 121.261 71.536 120.845 71.984C120.439 72.432 120.237 73.072 120.237 73.904V78H118.541ZM131.146 78.192C130.144 78.192 129.317 77.9467 128.666 77.456C128.016 76.9653 127.642 76.3147 127.546 75.504H129.258C129.344 75.8667 129.546 76.1813 129.866 76.448C130.186 76.704 130.608 76.832 131.13 76.832C131.642 76.832 132.016 76.7253 132.25 76.512C132.485 76.2987 132.602 76.0533 132.602 75.776C132.602 75.3707 132.437 75.0987 132.106 74.96C131.786 74.8107 131.338 74.6773 130.762 74.56C130.314 74.464 129.866 74.336 129.418 74.176C128.981 74.016 128.613 73.792 128.314 73.504C128.026 73.2053 127.882 72.8053 127.882 72.304C127.882 71.6107 128.149 71.0347 128.682 70.576C129.216 70.1067 129.962 69.872 130.922 69.872C131.808 69.872 132.522 70.0853 133.066 70.512C133.621 70.9387 133.946 71.5413 134.042 72.32H132.41C132.357 71.9787 132.197 71.712 131.93 71.52C131.674 71.328 131.328 71.232 130.89 71.232C130.464 71.232 130.133 71.3227 129.898 71.504C129.664 71.6747 129.546 71.8987 129.546 72.176C129.546 72.4533 129.706 72.672 130.026 72.832C130.357 72.992 130.789 73.136 131.322 73.264C131.856 73.3813 132.346 73.52 132.794 73.68C133.253 73.8293 133.621 74.0533 133.898 74.352C134.176 74.6507 134.314 75.088 134.314 75.664C134.325 76.3893 134.042 76.992 133.466 77.472C132.901 77.952 132.128 78.192 131.146 78.192ZM138.854 78.192C138.182 78.192 137.627 78.08 137.19 77.856C136.752 77.632 136.427 77.3387 136.214 76.976C136 76.6027 135.894 76.1973 135.894 75.76C135.894 74.992 136.192 74.384 136.79 73.936C137.387 73.488 138.24 73.264 139.35 73.264H141.43V73.12C141.43 72.5013 141.259 72.0373 140.918 71.728C140.587 71.4187 140.155 71.264 139.622 71.264C139.152 71.264 138.742 71.3813 138.39 71.616C138.048 71.84 137.84 72.176 137.766 72.624H136.07C136.123 72.048 136.315 71.5573 136.646 71.152C136.987 70.736 137.414 70.4213 137.926 70.208C138.448 69.984 139.019 69.872 139.638 69.872C140.747 69.872 141.606 70.1653 142.214 70.752C142.822 71.328 143.126 72.1173 143.126 73.12V78H141.654L141.51 76.64C141.286 77.0773 140.96 77.4453 140.534 77.744C140.107 78.0427 139.547 78.192 138.854 78.192ZM139.19 76.816C139.648 76.816 140.032 76.7093 140.342 76.496C140.662 76.272 140.907 75.9787 141.078 75.616C141.259 75.2533 141.371 74.8533 141.414 74.416H139.526C138.854 74.416 138.374 74.5333 138.086 74.768C137.808 75.0027 137.67 75.296 137.67 75.648C137.67 76.0107 137.803 76.2987 138.07 76.512C138.347 76.7147 138.72 76.816 139.19 76.816ZM148.863 78.192C148.085 78.192 147.386 78.016 146.767 77.664C146.159 77.312 145.679 76.8267 145.327 76.208C144.986 75.5787 144.815 74.8533 144.815 74.032C144.815 73.2107 144.986 72.4907 145.327 71.872C145.679 71.2427 146.159 70.752 146.767 70.4C147.386 70.048 148.085 69.872 148.863 69.872C149.845 69.872 150.666 70.128 151.327 70.64C151.999 71.152 152.431 71.8453 152.623 72.72H150.847C150.741 72.2827 150.506 71.9413 150.143 71.696C149.781 71.4507 149.354 71.328 148.863 71.328C148.447 71.328 148.063 71.4347 147.711 71.648C147.359 71.8507 147.077 72.1547 146.863 72.56C146.65 72.9547 146.543 73.4453 146.543 74.032C146.543 74.6187 146.65 75.1147 146.863 75.52C147.077 75.9147 147.359 76.2187 147.711 76.432C148.063 76.6453 148.447 76.752 148.863 76.752C149.354 76.752 149.781 76.6293 150.143 76.384C150.506 76.1387 150.741 75.792 150.847 75.344H152.623C152.442 76.1973 152.015 76.8853 151.343 77.408C150.671 77.9307 149.845 78.192 148.863 78.192ZM157.634 78C156.856 78 156.237 77.8133 155.778 77.44C155.32 77.056 155.09 76.3787 155.09 75.408V71.488H153.73V70.064H155.09L155.298 68.048H156.786V70.064H159.026V71.488H156.786V75.408C156.786 75.8453 156.877 76.1493 157.058 76.32C157.25 76.48 157.576 76.56 158.034 76.56H158.946V78H157.634ZM161.735 68.56C161.415 68.56 161.148 68.464 160.935 68.272C160.732 68.0693 160.631 67.8187 160.631 67.52C160.631 67.2213 160.732 66.976 160.935 66.784C161.148 66.5813 161.415 66.48 161.735 66.48C162.055 66.48 162.316 66.5813 162.519 66.784C162.732 66.976 162.839 67.2213 162.839 67.52C162.839 67.8187 162.732 68.0693 162.519 68.272C162.316 68.464 162.055 68.56 161.735 68.56ZM160.887 78V70.064H162.583V78H160.887ZM168.534 78.192C167.777 78.192 167.094 78.0213 166.486 77.68C165.889 77.328 165.414 76.8427 165.062 76.224C164.71 75.5947 164.534 74.864 164.534 74.032C164.534 73.2 164.71 72.4747 165.062 71.856C165.425 71.2267 165.91 70.7413 166.518 70.4C167.126 70.048 167.803 69.872 168.55 69.872C169.307 69.872 169.985 70.048 170.582 70.4C171.19 70.7413 171.67 71.2267 172.022 71.856C172.385 72.4747 172.566 73.2 172.566 74.032C172.566 74.864 172.385 75.5947 172.022 76.224C171.67 76.8427 171.19 77.328 170.582 77.68C169.974 78.0213 169.291 78.192 168.534 78.192ZM168.534 76.736C168.939 76.736 169.313 76.6347 169.654 76.432C170.006 76.2293 170.289 75.9307 170.502 75.536C170.715 75.1307 170.822 74.6293 170.822 74.032C170.822 73.4347 170.715 72.9387 170.502 72.544C170.299 72.1387 170.022 71.8347 169.67 71.632C169.329 71.4293 168.955 71.328 168.55 71.328C168.145 71.328 167.766 71.4293 167.414 71.632C167.073 71.8347 166.795 72.1387 166.582 72.544C166.369 72.9387 166.262 73.4347 166.262 74.032C166.262 74.6293 166.369 75.1307 166.582 75.536C166.795 75.9307 167.073 76.2293 167.414 76.432C167.755 76.6347 168.129 76.736 168.534 76.736ZM174.4 78V70.064H175.904L176.032 71.456C176.277 70.9653 176.635 70.5813 177.104 70.304C177.584 70.016 178.133 69.872 178.752 69.872C179.712 69.872 180.464 70.1707 181.008 70.768C181.563 71.3653 181.84 72.256 181.84 73.44V78H180.16V73.616C180.16 72.08 179.531 71.312 178.272 71.312C177.643 71.312 177.12 71.536 176.704 71.984C176.299 72.432 176.096 73.072 176.096 73.904V78H174.4Z" fill="#F5F5F5"/>
<path d="M51.48 108.182C50.276 108.182 49.3193 107.776 48.61 106.964C47.91 106.143 47.56 104.967 47.56 103.436V103.408C47.56 101.98 47.8913 100.869 48.554 100.076C49.2167 99.2827 50.192 98.886 51.48 98.886C52.7587 98.886 53.734 99.2827 54.406 100.076C55.078 100.869 55.414 101.98 55.414 103.408V103.436C55.414 104.976 55.064 106.152 54.364 106.964C53.664 107.776 52.7027 108.182 51.48 108.182ZM51.48 107.482C53.5333 107.482 54.56 106.175 54.56 103.562V103.1C54.56 102.008 54.308 101.154 53.804 100.538C53.3093 99.922 52.5347 99.614 51.48 99.614C50.4347 99.614 49.66 99.922 49.156 100.538C48.6613 101.154 48.414 102.008 48.414 103.1V103.562C48.414 106.175 49.436 107.482 51.48 107.482ZM56.7948 108V101.35H57.3688L57.4808 101.882C57.5554 102.311 57.5928 102.694 57.5928 103.03V103.226C57.6954 102.582 57.9894 102.083 58.4748 101.728C58.9601 101.373 59.5014 101.196 60.0988 101.196C61.5081 101.196 62.2128 101.933 62.2128 103.408V108H61.4148V103.268C61.4148 102.792 61.2934 102.442 61.0508 102.218C60.8174 101.985 60.4394 101.868 59.9168 101.868C59.2541 101.868 58.7034 102.087 58.2648 102.526C57.8354 102.965 57.6114 103.548 57.5928 104.276V108H56.7948ZM71.518 104.822H66.786C66.8047 106.605 67.6447 107.496 69.306 107.496C70.2114 107.496 70.93 107.281 71.462 106.852V107.398C71.322 107.585 71.0514 107.753 70.65 107.902C70.2487 108.051 69.7774 108.126 69.236 108.126C68.2 108.126 67.3927 107.823 66.814 107.216C66.2447 106.609 65.96 105.751 65.96 104.64V104.626C65.96 103.618 66.24 102.797 66.8 102.162C67.3694 101.518 68.102 101.196 68.998 101.196C69.8567 101.196 70.5054 101.453 70.944 101.966C71.3827 102.479 71.602 103.147 71.602 103.968C71.602 104.276 71.574 104.561 71.518 104.822ZM68.998 101.798C68.3447 101.798 67.8174 102.022 67.416 102.47C67.0147 102.918 66.8047 103.529 66.786 104.304H70.86V104.206C70.86 102.601 70.2394 101.798 68.998 101.798ZM74.6802 108L72.2022 101.35H73.0562L75.2962 107.524L77.4802 101.35H78.2922L75.8562 108H74.6802ZM84.2466 104.822H79.5146C79.5332 106.605 80.3732 107.496 82.0346 107.496C82.9399 107.496 83.6586 107.281 84.1906 106.852V107.398C84.0506 107.585 83.7799 107.753 83.3786 107.902C82.9772 108.051 82.5059 108.126 81.9646 108.126C80.9286 108.126 80.1212 107.823 79.5426 107.216C78.9732 106.609 78.6886 105.751 78.6886 104.64V104.626C78.6886 103.618 78.9686 102.797 79.5286 102.162C80.0979 101.518 80.8306 101.196 81.7266 101.196C82.5852 101.196 83.2339 101.453 83.6726 101.966C84.1112 102.479 84.3306 103.147 84.3306 103.968C84.3306 104.276 84.3026 104.561 84.2466 104.822ZM81.7266 101.798C81.0732 101.798 80.5459 102.022 80.1446 102.47C79.7432 102.918 79.5332 103.529 79.5146 104.304H83.5886V104.206C83.5886 102.601 82.9679 101.798 81.7266 101.798ZM85.6151 108V101.35H86.1891L86.3011 101.882C86.3757 102.311 86.4131 102.694 86.4131 103.03V103.422C86.5251 102.722 86.7537 102.185 87.0991 101.812C87.4444 101.439 87.8504 101.252 88.3171 101.252C88.5971 101.252 88.7837 101.327 88.8771 101.476V102.008C88.0464 101.989 87.4257 102.213 87.0151 102.68C86.6137 103.147 86.4131 103.945 86.4131 105.074V108H85.6151ZM90.9818 110.142C90.4124 110.142 90.0111 110.011 89.7778 109.75V109.33C90.0858 109.442 90.4498 109.498 90.8698 109.498C91.5231 109.498 91.9711 109.153 92.2138 108.462L92.3818 108H91.9758L89.4698 101.35H90.3238L92.5638 107.482L94.7198 101.35H95.5318L92.9978 108.294C92.7551 108.966 92.4798 109.442 92.1718 109.722C91.8731 110.002 91.4764 110.142 90.9818 110.142ZM101.35 108.126C100.79 108.126 100.333 107.972 99.9779 107.664C99.6325 107.356 99.4599 106.852 99.4599 106.152V101.994H98.5079V101.532C99.0119 101.495 99.3245 101.369 99.4459 101.154C99.5765 100.939 99.6839 100.435 99.7679 99.642H100.258V101.35H102.484V101.994H100.258V106.152C100.258 106.637 100.356 106.983 100.552 107.188C100.748 107.384 101.028 107.482 101.392 107.482C101.868 107.482 102.283 107.37 102.638 107.146V107.58C102.423 107.944 101.994 108.126 101.35 108.126ZM103.812 108V101.35H104.386L104.498 101.882C104.573 102.311 104.61 102.694 104.61 103.03V103.422C104.722 102.722 104.951 102.185 105.296 101.812C105.642 101.439 106.048 101.252 106.514 101.252C106.794 101.252 106.981 101.327 107.074 101.476V102.008C106.244 101.989 105.623 102.213 105.212 102.68C104.811 103.147 104.61 103.945 104.61 105.074V108H103.812ZM109.592 108.14C108.994 108.14 108.514 107.986 108.15 107.678C107.786 107.361 107.604 106.927 107.604 106.376V106.362C107.604 106.11 107.65 105.886 107.744 105.69C107.837 105.494 107.949 105.335 108.08 105.214C108.21 105.093 108.402 104.981 108.654 104.878C108.906 104.766 109.125 104.682 109.312 104.626C109.508 104.57 109.778 104.5 110.124 104.416C110.786 104.267 111.234 104.113 111.468 103.954C111.701 103.786 111.818 103.539 111.818 103.212V103.184C111.818 102.316 111.276 101.882 110.194 101.882C109.344 101.882 108.607 102.162 107.982 102.722V102.134C108.168 101.891 108.462 101.677 108.864 101.49C109.265 101.294 109.736 101.196 110.278 101.196C111.024 101.196 111.598 101.387 112 101.77C112.401 102.153 112.602 102.699 112.602 103.408V106.348C112.602 107.029 112.606 107.459 112.616 107.636L112.644 108H112.042C112.023 107.944 112 107.865 111.972 107.762C111.953 107.65 111.939 107.575 111.93 107.538C111.855 107.165 111.818 106.815 111.818 106.488C111.696 107.001 111.44 107.407 111.048 107.706C110.665 107.995 110.18 108.14 109.592 108.14ZM109.788 107.566C110.348 107.566 110.824 107.375 111.216 106.992C111.617 106.6 111.818 106.026 111.818 105.27V104.192C111.547 104.472 111.001 104.729 110.18 104.962C109.498 105.177 109.036 105.373 108.794 105.55C108.551 105.718 108.43 105.97 108.43 106.306V106.362C108.43 106.735 108.546 107.029 108.78 107.244C109.013 107.459 109.349 107.566 109.788 107.566ZM114.189 108V101.35H114.763L114.875 101.882C114.95 102.311 114.987 102.694 114.987 103.03V103.226C115.09 102.582 115.384 102.083 115.869 101.728C116.355 101.373 116.896 101.196 117.493 101.196C118.903 101.196 119.607 101.933 119.607 103.408V108H118.809V103.268C118.809 102.792 118.688 102.442 118.445 102.218C118.212 101.985 117.834 101.868 117.311 101.868C116.649 101.868 116.098 102.087 115.659 102.526C115.23 102.965 115.006 103.548 114.987 104.276V108H114.189ZM123.009 108.126C122.039 108.126 121.283 107.874 120.741 107.37V106.754C120.965 106.913 121.152 107.034 121.301 107.118C121.46 107.202 121.689 107.286 121.987 107.37C122.286 107.454 122.608 107.496 122.953 107.496C124.036 107.496 124.577 107.067 124.577 106.208C124.577 105.723 124.395 105.396 124.031 105.228C123.817 105.125 123.443 105.027 122.911 104.934C122.389 104.831 122.011 104.733 121.777 104.64C121.143 104.369 120.825 103.837 120.825 103.044C120.825 102.456 121.035 102.003 121.455 101.686C121.875 101.359 122.412 101.196 123.065 101.196C123.933 101.196 124.573 101.401 124.983 101.812V102.4C124.47 102.027 123.849 101.84 123.121 101.84C122.645 101.84 122.267 101.938 121.987 102.134C121.707 102.33 121.567 102.629 121.567 103.03C121.567 103.497 121.74 103.814 122.085 103.982C122.309 104.094 122.701 104.201 123.261 104.304C123.821 104.407 124.213 104.509 124.437 104.612C124.745 104.752 124.974 104.939 125.123 105.172C125.273 105.405 125.347 105.737 125.347 106.166C125.347 106.791 125.133 107.277 124.703 107.622C124.274 107.958 123.709 108.126 123.009 108.126ZM128.158 108.14C127.561 108.14 127.08 107.986 126.716 107.678C126.352 107.361 126.17 106.927 126.17 106.376V106.362C126.17 106.11 126.217 105.886 126.31 105.69C126.403 105.494 126.515 105.335 126.646 105.214C126.777 105.093 126.968 104.981 127.22 104.878C127.472 104.766 127.691 104.682 127.878 104.626C128.074 104.57 128.345 104.5 128.69 104.416C129.353 104.267 129.801 104.113 130.034 103.954C130.267 103.786 130.384 103.539 130.384 103.212V103.184C130.384 102.316 129.843 101.882 128.76 101.882C127.911 101.882 127.173 102.162 126.548 102.722V102.134C126.735 101.891 127.029 101.677 127.43 101.49C127.831 101.294 128.303 101.196 128.844 101.196C129.591 101.196 130.165 101.387 130.566 101.77C130.967 102.153 131.168 102.699 131.168 103.408V106.348C131.168 107.029 131.173 107.459 131.182 107.636L131.21 108H130.608C130.589 107.944 130.566 107.865 130.538 107.762C130.519 107.65 130.505 107.575 130.496 107.538C130.421 107.165 130.384 106.815 130.384 106.488C130.263 107.001 130.006 107.407 129.614 107.706C129.231 107.995 128.746 108.14 128.158 108.14ZM128.354 107.566C128.914 107.566 129.39 107.375 129.782 106.992C130.183 106.6 130.384 106.026 130.384 105.27V104.192C130.113 104.472 129.567 104.729 128.746 104.962C128.065 105.177 127.603 105.373 127.36 105.55C127.117 105.718 126.996 105.97 126.996 106.306V106.362C126.996 106.735 127.113 107.029 127.346 107.244C127.579 107.459 127.915 107.566 128.354 107.566ZM135.556 108.126C134.594 108.126 133.824 107.813 133.246 107.188C132.676 106.553 132.392 105.699 132.392 104.626V104.612C132.392 104.015 132.48 103.487 132.658 103.03C132.844 102.573 133.092 102.218 133.4 101.966C133.717 101.705 134.048 101.513 134.394 101.392C134.748 101.261 135.122 101.196 135.514 101.196C136.55 101.196 137.24 101.429 137.586 101.896V102.456C137.054 102.045 136.377 101.84 135.556 101.84C134.893 101.84 134.338 102.045 133.89 102.456C133.442 102.867 133.218 103.478 133.218 104.29V104.696C133.218 105.62 133.418 106.325 133.82 106.81C134.23 107.286 134.818 107.524 135.584 107.524C136.377 107.524 137.082 107.286 137.698 106.81V107.328C137.548 107.543 137.287 107.729 136.914 107.888C136.55 108.047 136.097 108.126 135.556 108.126ZM141.19 108.126C140.63 108.126 140.172 107.972 139.818 107.664C139.472 107.356 139.3 106.852 139.3 106.152V101.994H138.348V101.532C138.852 101.495 139.164 101.369 139.286 101.154C139.416 100.939 139.524 100.435 139.608 99.642H140.098V101.35H142.324V101.994H140.098V106.152C140.098 106.637 140.196 106.983 140.392 107.188C140.588 107.384 140.868 107.482 141.232 107.482C141.708 107.482 142.123 107.37 142.478 107.146V107.58C142.263 107.944 141.834 108.126 141.19 108.126ZM144.492 99.964C144.38 100.067 144.245 100.118 144.086 100.118C143.928 100.118 143.788 100.067 143.666 99.964C143.554 99.852 143.498 99.7167 143.498 99.558C143.498 99.3993 143.554 99.264 143.666 99.152C143.788 99.0307 143.928 98.97 144.086 98.97C144.245 98.97 144.38 99.0307 144.492 99.152C144.614 99.264 144.674 99.3993 144.674 99.558C144.674 99.7167 144.614 99.852 144.492 99.964ZM143.694 108V101.35H144.492V108H143.694ZM148.925 108.126C148.029 108.126 147.287 107.818 146.699 107.202C146.111 106.577 145.817 105.699 145.817 104.57V104.542C145.817 103.534 146.102 102.727 146.671 102.12C147.241 101.504 147.992 101.196 148.925 101.196C149.849 101.196 150.596 101.499 151.165 102.106C151.735 102.703 152.019 103.506 152.019 104.514V104.542C152.019 105.681 151.725 106.563 151.137 107.188C150.549 107.813 149.812 108.126 148.925 108.126ZM148.925 107.538C149.616 107.538 150.167 107.305 150.577 106.838C150.997 106.362 151.207 105.643 151.207 104.682V104.29C151.207 103.515 151.002 102.909 150.591 102.47C150.181 102.022 149.625 101.798 148.925 101.798C148.225 101.798 147.67 102.022 147.259 102.47C146.849 102.909 146.643 103.515 146.643 104.29V104.682C146.643 105.643 146.853 106.362 147.273 106.838C147.693 107.305 148.244 107.538 148.925 107.538ZM153.318 108V101.35H153.892L154.004 101.882C154.079 102.311 154.116 102.694 154.116 103.03V103.226C154.219 102.582 154.513 102.083 154.998 101.728C155.484 101.373 156.025 101.196 156.622 101.196C158.032 101.196 158.736 101.933 158.736 103.408V108H157.938V103.268C157.938 102.792 157.817 102.442 157.574 102.218C157.341 101.985 156.963 101.868 156.44 101.868C155.778 101.868 155.227 102.087 154.788 102.526C154.359 102.965 154.135 103.548 154.116 104.276V108H153.318Z" fill="#F5F5F5"/>
<path d="M64.532 38.108H69.264V49.812H71.952V52.528H69.264V56H65.652V52.528H57.728V49.084L64.532 38.108ZM65.652 40.992L60.136 49.812H65.652V40.992ZM81.0452 56.42C78.8612 56.42 77.0412 55.6547 75.5852 54.124C74.1292 52.5933 73.4012 50.316 73.4012 47.292V46.536C73.4012 43.736 74.1012 41.5707 75.5012 40.04C76.9012 38.4907 78.7492 37.716 81.0452 37.716C83.3412 37.716 85.1799 38.4907 86.5612 40.04C87.9612 41.5707 88.6612 43.736 88.6612 46.536V47.292C88.6612 50.316 87.9426 52.5933 86.5052 54.124C85.0679 55.6547 83.2479 56.42 81.0452 56.42ZM77.1532 47.964C77.1532 51.772 78.4506 53.676 81.0452 53.676C83.6399 53.676 84.9372 51.772 84.9372 47.964V45.584C84.9372 43.96 84.6012 42.728 83.9292 41.888C83.2572 41.0293 82.2959 40.6 81.0452 40.6C79.7946 40.6 78.8332 41.0293 78.1612 41.888C77.4892 42.728 77.1532 43.96 77.1532 45.584V47.964ZM108.107 51.52V51.744C108.107 53.2187 107.706 54.3573 106.903 55.16C106.1 55.9627 105.074 56.364 103.823 56.364C102.591 56.364 101.564 55.9627 100.743 55.16C99.9403 54.3573 99.539 53.2187 99.539 51.744V51.52C99.539 50.1573 99.9403 49.0747 100.743 48.272C101.546 47.4693 102.572 47.068 103.823 47.068C105.092 47.068 106.119 47.4693 106.903 48.272C107.706 49.056 108.107 50.1387 108.107 51.52ZM102.311 51.1V52.136C102.311 53.7227 102.815 54.516 103.823 54.516C104.346 54.516 104.728 54.3387 104.971 53.984C105.232 53.6107 105.363 52.9947 105.363 52.136V51.1C105.363 50.372 105.242 49.8493 104.999 49.532C104.756 49.2147 104.364 49.056 103.823 49.056C102.815 49.056 102.311 49.7373 102.311 51.1ZM94.359 45.164C94.8817 45.164 95.2643 44.9867 95.507 44.632C95.7683 44.2773 95.899 43.6707 95.899 42.812V41.748C95.899 41.0387 95.7777 40.5253 95.535 40.208C95.2923 39.872 94.9003 39.704 94.359 39.704C93.351 39.704 92.847 40.3853 92.847 41.748V42.812C92.847 44.38 93.351 45.164 94.359 45.164ZM94.359 47.012C93.1457 47.012 92.1283 46.6107 91.307 45.808C90.5043 45.0053 90.103 43.876 90.103 42.42V42.196C90.103 40.8147 90.495 39.7227 91.279 38.92C92.0817 38.1173 93.1083 37.716 94.359 37.716C95.647 37.716 96.683 38.1173 97.467 38.92C98.2697 39.7227 98.671 40.8147 98.671 42.196V42.42C98.671 43.876 98.2603 45.0053 97.439 45.808C96.6363 46.6107 95.6097 47.012 94.359 47.012ZM106.455 38.108L94.135 56H91.811L104.131 38.108H106.455ZM123.224 56.42C120.723 56.42 118.698 55.6173 117.148 54.012C115.618 52.388 114.852 50.0547 114.852 47.012V46.956C114.852 44.1187 115.58 41.8693 117.036 40.208C118.511 38.5467 120.574 37.716 123.224 37.716C125.875 37.716 127.928 38.5467 129.384 40.208C130.84 41.8693 131.568 44.1187 131.568 46.956V47.012C131.568 50.0547 130.803 52.388 129.272 54.012C127.76 55.6173 125.744 56.42 123.224 56.42ZM119.724 52.22C120.471 53.1907 121.638 53.676 123.224 53.676C124.811 53.676 125.978 53.1907 126.724 52.22C127.471 51.2307 127.844 49.6627 127.844 47.516V46.144C127.844 42.448 126.304 40.6 123.224 40.6C120.144 40.6 118.604 42.448 118.604 46.144V47.516C118.604 49.6627 118.978 51.2307 119.724 52.22ZM132.917 42.42H134.765V41.552C134.765 40.0587 135.175 38.948 135.997 38.22C136.837 37.4733 137.826 37.1 138.965 37.1C140.141 37.1 140.999 37.352 141.541 37.856V39.648C141.13 39.6107 140.729 39.592 140.337 39.592C139.609 39.592 139.086 39.732 138.769 40.012C138.47 40.292 138.321 40.74 138.321 41.356V42.42H142.745V41.524C142.745 39.9747 143.174 38.8267 144.033 38.08C144.91 37.3333 145.937 36.96 147.113 36.96C148.363 36.96 149.278 37.212 149.857 37.716V39.536C149.558 39.4613 149.073 39.424 148.401 39.424C147.617 39.424 147.066 39.5733 146.749 39.872C146.45 40.152 146.301 40.628 146.301 41.3V42.42H149.857V44.828H146.301V56H142.745V44.828H138.321V56H134.765V44.828H132.917V42.42Z" fill="#F5F5F5"/>
<rect x="206.5" y="191.5" width="206" height="191" rx="9.5" transform="rotate(-180 206.5 191.5)" stroke="#7AC231"/>
<rect x="24" y="2" width="13" height="23" fill="#F2994A"/>
<rect x="39" y="2" width="13" height="13" fill="#F2C94C"/>
</svg>
