<svg width="260" height="117" viewBox="0 0 260 117" fill="none" xmlns="http://www.w3.org/2000/svg">
<rect width="260" height="117" rx="13" fill="#EDF8D2" fill-opacity="0.08"/>
<path d="M47.75 72V68.01C50.83 66.11 53.05 64.45 54.41 63.03C55.77 61.61 56.45 60.16 56.45 58.68C56.45 56.66 55.33 55.65 53.09 55.65C51.37 55.65 49.72 56.21 48.14 57.33V54.69C49.58 53.17 51.5 52.41 53.9 52.41C55.9 52.41 57.49 52.9 58.67 53.88C59.87 54.86 60.47 56.41 60.47 58.53C60.47 60.57 59.62 62.44 57.92 64.14C56.24 65.82 53.7 67.44 50.3 69V69.03H60.56V72H47.75ZM64.857 74.7H62.337C63.097 72.84 63.477 71.06 63.477 69.36C63.477 68.92 63.427 68.38 63.327 67.74H67.137C67.177 68.18 67.197 68.52 67.197 68.76C67.197 70.92 66.417 72.9 64.857 74.7ZM69.9261 72V71.76C71.9261 70.8 73.7161 69.55 75.2961 68.01C76.8761 66.45 77.9161 64.77 78.4161 62.97C77.4561 64.57 75.9061 65.37 73.7661 65.37C71.8661 65.37 70.3661 64.81 69.2661 63.69C68.1861 62.57 67.6461 61.08 67.6461 59.22V59.07C67.6461 57.03 68.3061 55.41 69.6261 54.21C70.9661 52.99 72.7461 52.38 74.9661 52.38C77.3461 52.38 79.2261 53.04 80.6061 54.36C82.0061 55.66 82.7061 57.55 82.7061 60.03V60.54C82.7061 61.92 82.4661 63.26 81.9861 64.56C81.5261 65.84 80.9061 66.96 80.1261 67.92C79.3661 68.86 78.6061 69.67 77.8461 70.35C77.1061 71.01 76.3461 71.56 75.5661 72H69.9261ZM75.0861 62.88C76.1661 62.88 77.0261 62.59 77.6661 62.01C78.3261 61.43 78.6761 60.66 78.7161 59.7V58.8C78.7161 57.66 78.3861 56.75 77.7261 56.07C77.0661 55.39 76.1661 55.05 75.0261 55.05C73.9061 55.05 73.0561 55.38 72.4761 56.04C71.8961 56.7 71.6061 57.61 71.6061 58.77V59.16C71.6061 60.28 71.8861 61.18 72.4461 61.86C73.0061 62.54 73.8861 62.88 75.0861 62.88ZM91.6353 72.42C89.5153 72.42 87.7653 71.92 86.3853 70.92C85.0253 69.92 84.3453 68.54 84.3453 66.78V66.54C84.3453 65.36 84.7053 64.37 85.4253 63.57C86.1653 62.77 87.2153 62.2 88.5753 61.86C86.1753 61.1 84.9753 59.69 84.9753 57.63V57.48C84.9753 55.98 85.5953 54.77 86.8353 53.85C88.0753 52.91 89.6753 52.44 91.6353 52.44C93.5753 52.44 95.1553 52.9 96.3753 53.82C97.6153 54.74 98.2353 55.95 98.2353 57.45V57.63C98.2353 59.69 97.0353 61.1 94.6353 61.86C95.9753 62.22 97.0153 62.8 97.7553 63.6C98.4953 64.38 98.8653 65.35 98.8653 66.51V66.75C98.8653 68.51 98.1853 69.9 96.8253 70.92C95.4653 71.92 93.7353 72.42 91.6353 72.42ZM91.6353 69.75C93.8153 69.75 94.9053 68.7 94.9053 66.6V66.03C94.9053 65.03 94.6153 64.26 94.0353 63.72C93.4553 63.18 92.6553 62.91 91.6353 62.91C90.5753 62.91 89.7553 63.18 89.1753 63.72C88.6153 64.26 88.3353 65.03 88.3353 66.03V66.6C88.3353 68.7 89.4353 69.75 91.6353 69.75ZM91.6353 60.87C93.5753 60.87 94.5453 59.96 94.5453 58.14V57.69C94.5453 56.93 94.2853 56.32 93.7653 55.86C93.2653 55.38 92.5553 55.14 91.6353 55.14C90.6953 55.14 89.9653 55.38 89.4453 55.86C88.9453 56.32 88.6953 56.93 88.6953 57.69V58.14C88.6953 59.96 89.6753 60.87 91.6353 60.87ZM107.173 60.03C109.373 60.03 111.033 60.58 112.153 61.68C113.293 62.76 113.863 64.25 113.863 66.15C113.863 67.99 113.223 69.48 111.943 70.62C110.663 71.74 108.903 72.3 106.663 72.3C104.043 72.3 102.113 71.64 100.873 70.32V67.74C102.373 68.78 104.083 69.3 106.003 69.3C108.583 69.3 109.873 68.16 109.873 65.88C109.873 64.72 109.533 63.87 108.853 63.33C108.173 62.77 107.093 62.49 105.613 62.49C104.193 62.49 102.863 62.75 101.623 63.27H101.383V52.83H112.753V56.07H104.473V60.42C105.373 60.16 106.273 60.03 107.173 60.03ZM117.978 72.27C117.358 72.27 116.818 72.04 116.358 71.58C115.898 71.12 115.668 70.57 115.668 69.93C115.668 69.27 115.898 68.71 116.358 68.25C116.818 67.77 117.358 67.53 117.978 67.53C118.638 67.53 119.198 67.77 119.658 68.25C120.118 68.71 120.348 69.27 120.348 69.93C120.348 70.57 120.118 71.12 119.658 71.58C119.198 72.04 118.638 72.27 117.978 72.27ZM135.168 52.83V53.07C130.068 55.59 127.048 58.58 126.108 62.04C127.068 60.38 128.578 59.55 130.638 59.55C132.598 59.55 134.128 60.11 135.228 61.23C136.348 62.35 136.908 63.83 136.908 65.67V65.82C136.908 67.86 136.258 69.48 134.958 70.68C133.658 71.86 131.878 72.45 129.618 72.45C127.258 72.45 125.368 71.77 123.948 70.41C122.548 69.03 121.848 67.17 121.848 64.83V64.26C121.848 63.08 122.028 61.94 122.388 60.84C122.768 59.74 123.228 58.79 123.768 57.99C124.328 57.19 124.978 56.43 125.718 55.71C126.458 54.99 127.148 54.41 127.788 53.97C128.428 53.53 129.058 53.15 129.678 52.83H135.168ZM129.468 62.07C128.388 62.07 127.528 62.36 126.888 62.94C126.248 63.5 125.908 64.28 125.868 65.28V66.06C125.868 67.2 126.188 68.11 126.828 68.79C127.488 69.45 128.388 69.78 129.528 69.78C130.648 69.78 131.498 69.45 132.078 68.79C132.678 68.13 132.978 67.23 132.978 66.09V65.64C132.978 64.58 132.688 63.72 132.108 63.06C131.548 62.4 130.668 62.07 129.468 62.07ZM137.426 56.01V52.83H150.506V56.97L143.666 72H139.676L146.966 56.01H137.426Z" fill="#F5F5F5"/>
<path d="M33.36 69V64.06H32.2V62.58H33.36V61.14H32.2V59.66H33.36V54.72H36.5L38.06 59.66H39.88V54.72H42.1V59.66H43.24V61.14H42.1V62.58H43.24V64.06H42.1V69H38.94L37.34 64.06H35.58V69H33.36ZM35.58 62.58H36.9L36.46 61.14H35.54L35.58 62.58ZM39.94 65.88H40.04L39.96 64.06H39.42L39.94 65.88ZM35.5 59.66H36.06L35.48 57.74H35.4L35.5 59.66ZM39 62.58H39.92L39.88 61.14H38.54L39 62.58Z" fill="#F5F5F5"/>
<path d="M46.76 31V21.176H43.448V19.8H51.752V21.176H48.456V31H46.76ZM55.5496 31.192C54.7923 31.192 54.1096 31.0213 53.5016 30.68C52.9043 30.328 52.4296 29.8427 52.0776 29.224C51.7256 28.5947 51.5496 27.864 51.5496 27.032C51.5496 26.2 51.7256 25.4747 52.0776 24.856C52.4403 24.2267 52.9256 23.7413 53.5336 23.4C54.1416 23.048 54.819 22.872 55.5656 22.872C56.323 22.872 57.0003 23.048 57.5976 23.4C58.2056 23.7413 58.6856 24.2267 59.0376 24.856C59.4003 25.4747 59.5816 26.2 59.5816 27.032C59.5816 27.864 59.4003 28.5947 59.0376 29.224C58.6856 29.8427 58.2056 30.328 57.5976 30.68C56.9896 31.0213 56.307 31.192 55.5496 31.192ZM55.5496 29.736C55.955 29.736 56.3283 29.6347 56.6696 29.432C57.0216 29.2293 57.3043 28.9307 57.5176 28.536C57.731 28.1307 57.8376 27.6293 57.8376 27.032C57.8376 26.4347 57.731 25.9387 57.5176 25.544C57.315 25.1387 57.0376 24.8347 56.6856 24.632C56.3443 24.4293 55.971 24.328 55.5656 24.328C55.1603 24.328 54.7816 24.4293 54.4296 24.632C54.0883 24.8347 53.811 25.1387 53.5976 25.544C53.3843 25.9387 53.2776 26.4347 53.2776 27.032C53.2776 27.6293 53.3843 28.1307 53.5976 28.536C53.811 28.9307 54.0883 29.2293 54.4296 29.432C54.771 29.6347 55.1443 29.736 55.5496 29.736ZM64.4313 31C63.6526 31 63.0339 30.8133 62.5753 30.44C62.1166 30.056 61.8873 29.3787 61.8873 28.408V24.488H60.5273V23.064H61.8873L62.0953 21.048H63.5833V23.064H65.8233V24.488H63.5833V28.408C63.5833 28.8453 63.6739 29.1493 63.8553 29.32C64.0473 29.48 64.3726 29.56 64.8313 29.56H65.7433V31H64.4313ZM70.26 31.192C69.588 31.192 69.0333 31.08 68.596 30.856C68.1587 30.632 67.8333 30.3387 67.62 29.976C67.4067 29.6027 67.3 29.1973 67.3 28.76C67.3 27.992 67.5987 27.384 68.196 26.936C68.7933 26.488 69.6467 26.264 70.756 26.264H72.836V26.12C72.836 25.5013 72.6653 25.0373 72.324 24.728C71.9933 24.4187 71.5613 24.264 71.028 24.264C70.5587 24.264 70.148 24.3813 69.796 24.616C69.4547 24.84 69.2467 25.176 69.172 25.624H67.476C67.5293 25.048 67.7213 24.5573 68.052 24.152C68.3933 23.736 68.82 23.4213 69.332 23.208C69.8547 22.984 70.4253 22.872 71.044 22.872C72.1533 22.872 73.012 23.1653 73.62 23.752C74.228 24.328 74.532 25.1173 74.532 26.12V31H73.06L72.916 29.64C72.692 30.0773 72.3667 30.4453 71.94 30.744C71.5133 31.0427 70.9533 31.192 70.26 31.192ZM70.596 29.816C71.0547 29.816 71.4387 29.7093 71.748 29.496C72.068 29.272 72.3133 28.9787 72.484 28.616C72.6653 28.2533 72.7773 27.8533 72.82 27.416H70.932C70.26 27.416 69.78 27.5333 69.492 27.768C69.2147 28.0027 69.076 28.296 69.076 28.648C69.076 29.0107 69.2093 29.2987 69.476 29.512C69.7533 29.7147 70.1267 29.816 70.596 29.816ZM76.5095 31V19.48H78.2055V31H76.5095ZM84.4485 31V19.8H88.3685C89.2432 19.8 89.9685 19.9493 90.5445 20.248C91.1205 20.536 91.5472 20.936 91.8245 21.448C92.1125 21.9493 92.2565 22.52 92.2565 23.16C92.2565 23.768 92.1178 24.328 91.8405 24.84C91.5738 25.3413 91.1525 25.7413 90.5765 26.04C90.0005 26.3387 89.2645 26.488 88.3685 26.488H86.1445V31H84.4485ZM86.1445 25.096H88.2885C89.0885 25.096 89.6592 24.9253 90.0005 24.584C90.3525 24.232 90.5285 23.7573 90.5285 23.16C90.5285 22.5413 90.3525 22.0613 90.0005 21.72C89.6592 21.368 89.0885 21.192 88.2885 21.192H86.1445V25.096ZM96.1194 31.192C95.4474 31.192 94.8927 31.08 94.4554 30.856C94.018 30.632 93.6927 30.3387 93.4794 29.976C93.266 29.6027 93.1594 29.1973 93.1594 28.76C93.1594 27.992 93.458 27.384 94.0554 26.936C94.6527 26.488 95.506 26.264 96.6154 26.264H98.6954V26.12C98.6954 25.5013 98.5247 25.0373 98.1834 24.728C97.8527 24.4187 97.4207 24.264 96.8874 24.264C96.418 24.264 96.0074 24.3813 95.6554 24.616C95.314 24.84 95.106 25.176 95.0314 25.624H93.3354C93.3887 25.048 93.5807 24.5573 93.9114 24.152C94.2527 23.736 94.6794 23.4213 95.1914 23.208C95.714 22.984 96.2847 22.872 96.9034 22.872C98.0127 22.872 98.8714 23.1653 99.4794 23.752C100.087 24.328 100.391 25.1173 100.391 26.12V31H98.9194L98.7754 29.64C98.5514 30.0773 98.226 30.4453 97.7994 30.744C97.3727 31.0427 96.8127 31.192 96.1194 31.192ZM96.4554 29.816C96.914 29.816 97.298 29.7093 97.6074 29.496C97.9274 29.272 98.1727 28.9787 98.3434 28.616C98.5247 28.2533 98.6367 27.8533 98.6794 27.416H96.7914C96.1194 27.416 95.6394 27.5333 95.3514 27.768C95.074 28.0027 94.9354 28.296 94.9354 28.648C94.9354 29.0107 95.0687 29.2987 95.3354 29.512C95.6127 29.7147 95.986 29.816 96.4554 29.816ZM103.047 34.52L104.951 30.344H104.487L101.351 23.064H103.191L105.623 28.936L108.167 23.064H109.959L104.839 34.52H103.047ZM111.353 31V23.064H112.857L113.001 24.184C113.257 23.7787 113.593 23.4587 114.009 23.224C114.436 22.9893 114.927 22.872 115.481 22.872C116.74 22.872 117.615 23.368 118.105 24.36C118.393 23.9013 118.777 23.5387 119.257 23.272C119.748 23.0053 120.276 22.872 120.841 22.872C121.833 22.872 122.612 23.1707 123.177 23.768C123.743 24.3653 124.025 25.256 124.025 26.44V31H122.329V26.616C122.329 25.08 121.743 24.312 120.569 24.312C119.972 24.312 119.481 24.536 119.097 24.984C118.724 25.432 118.537 26.072 118.537 26.904V31H116.841V26.616C116.841 25.08 116.249 24.312 115.065 24.312C114.479 24.312 113.993 24.536 113.609 24.984C113.236 25.432 113.049 26.072 113.049 26.904V31H111.353ZM129.722 31.192C128.943 31.192 128.25 31.0213 127.642 30.68C127.044 30.328 126.575 29.8427 126.234 29.224C125.892 28.6053 125.722 27.8853 125.722 27.064C125.722 26.232 125.887 25.5013 126.218 24.872C126.559 24.2427 127.028 23.752 127.626 23.4C128.234 23.048 128.938 22.872 129.738 22.872C130.516 22.872 131.194 23.048 131.77 23.4C132.346 23.7413 132.794 24.2 133.114 24.776C133.434 25.352 133.594 25.9867 133.594 26.68C133.594 26.7867 133.588 26.904 133.578 27.032C133.578 27.1493 133.572 27.2827 133.562 27.432H127.386C127.439 28.2 127.69 28.7867 128.138 29.192C128.596 29.5867 129.124 29.784 129.722 29.784C130.202 29.784 130.602 29.6773 130.922 29.464C131.252 29.24 131.498 28.9413 131.658 28.568H133.354C133.14 29.3147 132.714 29.9387 132.074 30.44C131.444 30.9413 130.66 31.192 129.722 31.192ZM129.722 24.264C129.156 24.264 128.655 24.4347 128.218 24.776C127.78 25.1067 127.514 25.608 127.418 26.28H131.898C131.866 25.6613 131.647 25.1707 131.242 24.808C130.836 24.4453 130.33 24.264 129.722 24.264ZM135.353 31V23.064H136.857L136.985 24.456C137.231 23.9653 137.588 23.5813 138.057 23.304C138.537 23.016 139.087 22.872 139.705 22.872C140.665 22.872 141.417 23.1707 141.961 23.768C142.516 24.3653 142.793 25.256 142.793 26.44V31H141.113V26.616C141.113 25.08 140.484 24.312 139.225 24.312C138.596 24.312 138.073 24.536 137.657 24.984C137.252 25.432 137.049 26.072 137.049 26.904V31H135.353ZM148.119 31C147.34 31 146.721 30.8133 146.263 30.44C145.804 30.056 145.575 29.3787 145.575 28.408V24.488H144.215V23.064H145.575L145.783 21.048H147.271V23.064H149.511V24.488H147.271V28.408C147.271 28.8453 147.361 29.1493 147.543 29.32C147.735 29.48 148.06 29.56 148.519 29.56H149.431V31H148.119ZM155.355 31V19.8H159.211C160.096 19.8 160.821 19.9493 161.387 20.248C161.963 20.5467 162.389 20.952 162.667 21.464C162.944 21.9653 163.083 22.5253 163.083 23.144C163.083 23.8373 162.896 24.4667 162.523 25.032C162.16 25.5973 161.589 26.0027 160.811 26.248L163.195 31H161.227L159.051 26.488H157.051V31H155.355ZM157.051 25.208H159.115C159.883 25.208 160.443 25.0213 160.795 24.648C161.157 24.2747 161.339 23.7893 161.339 23.192C161.339 22.5947 161.163 22.12 160.811 21.768C160.459 21.4053 159.888 21.224 159.099 21.224H157.051V25.208ZM168.253 31.192C167.474 31.192 166.781 31.0213 166.173 30.68C165.575 30.328 165.106 29.8427 164.765 29.224C164.423 28.6053 164.253 27.8853 164.253 27.064C164.253 26.232 164.418 25.5013 164.749 24.872C165.09 24.2427 165.559 23.752 166.157 23.4C166.765 23.048 167.469 22.872 168.269 22.872C169.047 22.872 169.725 23.048 170.301 23.4C170.877 23.7413 171.325 24.2 171.645 24.776C171.965 25.352 172.125 25.9867 172.125 26.68C172.125 26.7867 172.119 26.904 172.109 27.032C172.109 27.1493 172.103 27.2827 172.093 27.432H165.917C165.97 28.2 166.221 28.7867 166.669 29.192C167.127 29.5867 167.655 29.784 168.253 29.784C168.733 29.784 169.133 29.6773 169.453 29.464C169.783 29.24 170.029 28.9413 170.189 28.568H171.885C171.671 29.3147 171.245 29.9387 170.605 30.44C169.975 30.9413 169.191 31.192 168.253 31.192ZM168.253 24.264C167.687 24.264 167.186 24.4347 166.749 24.776C166.311 25.1067 166.045 25.608 165.949 26.28H170.429C170.397 25.6613 170.178 25.1707 169.773 24.808C169.367 24.4453 168.861 24.264 168.253 24.264ZM177.645 31.192C176.866 31.192 176.167 31.016 175.549 30.664C174.941 30.312 174.461 29.8267 174.109 29.208C173.767 28.5787 173.597 27.8533 173.597 27.032C173.597 26.2107 173.767 25.4907 174.109 24.872C174.461 24.2427 174.941 23.752 175.549 23.4C176.167 23.048 176.866 22.872 177.645 22.872C178.626 22.872 179.447 23.128 180.109 23.64C180.781 24.152 181.213 24.8453 181.405 25.72H179.629C179.522 25.2827 179.287 24.9413 178.925 24.696C178.562 24.4507 178.135 24.328 177.645 24.328C177.229 24.328 176.845 24.4347 176.493 24.648C176.141 24.8507 175.858 25.1547 175.645 25.56C175.431 25.9547 175.325 26.4453 175.325 27.032C175.325 27.6187 175.431 28.1147 175.645 28.52C175.858 28.9147 176.141 29.2187 176.493 29.432C176.845 29.6453 177.229 29.752 177.645 29.752C178.135 29.752 178.562 29.6293 178.925 29.384C179.287 29.1387 179.522 28.792 179.629 28.344H181.405C181.223 29.1973 180.797 29.8853 180.125 30.408C179.453 30.9307 178.626 31.192 177.645 31.192ZM186.956 31.192C186.177 31.192 185.484 31.0213 184.876 30.68C184.279 30.328 183.809 29.8427 183.468 29.224C183.127 28.6053 182.956 27.8853 182.956 27.064C182.956 26.232 183.121 25.5013 183.452 24.872C183.793 24.2427 184.263 23.752 184.86 23.4C185.468 23.048 186.172 22.872 186.972 22.872C187.751 22.872 188.428 23.048 189.004 23.4C189.58 23.7413 190.028 24.2 190.348 24.776C190.668 25.352 190.828 25.9867 190.828 26.68C190.828 26.7867 190.823 26.904 190.812 27.032C190.812 27.1493 190.807 27.2827 190.796 27.432H184.62C184.673 28.2 184.924 28.7867 185.372 29.192C185.831 29.5867 186.359 29.784 186.956 29.784C187.436 29.784 187.836 29.6773 188.156 29.464C188.487 29.24 188.732 28.9413 188.892 28.568H190.588C190.375 29.3147 189.948 29.9387 189.308 30.44C188.679 30.9413 187.895 31.192 186.956 31.192ZM186.956 24.264C186.391 24.264 185.889 24.4347 185.452 24.776C185.015 25.1067 184.748 25.608 184.652 26.28H189.132C189.1 25.6613 188.881 25.1707 188.476 24.808C188.071 24.4453 187.564 24.264 186.956 24.264ZM193.548 21.56C193.228 21.56 192.961 21.464 192.748 21.272C192.545 21.0693 192.444 20.8187 192.444 20.52C192.444 20.2213 192.545 19.976 192.748 19.784C192.961 19.5813 193.228 19.48 193.548 19.48C193.868 19.48 194.129 19.5813 194.332 19.784C194.545 19.976 194.652 20.2213 194.652 20.52C194.652 20.8187 194.545 21.0693 194.332 21.272C194.129 21.464 193.868 21.56 193.548 21.56ZM192.7 31V23.064H194.396V31H192.7ZM198.859 31L195.883 23.064H197.659L199.867 29.384L202.075 23.064H203.835L200.875 31H198.859ZM208.534 31.192C207.755 31.192 207.062 31.0213 206.454 30.68C205.857 30.328 205.387 29.8427 205.046 29.224C204.705 28.6053 204.534 27.8853 204.534 27.064C204.534 26.232 204.699 25.5013 205.03 24.872C205.371 24.2427 205.841 23.752 206.438 23.4C207.046 23.048 207.75 22.872 208.55 22.872C209.329 22.872 210.006 23.048 210.582 23.4C211.158 23.7413 211.606 24.2 211.926 24.776C212.246 25.352 212.406 25.9867 212.406 26.68C212.406 26.7867 212.401 26.904 212.39 27.032C212.39 27.1493 212.385 27.2827 212.374 27.432H206.198C206.251 28.2 206.502 28.7867 206.95 29.192C207.409 29.5867 207.937 29.784 208.534 29.784C209.014 29.784 209.414 29.6773 209.734 29.464C210.065 29.24 210.31 28.9413 210.47 28.568H212.166C211.953 29.3147 211.526 29.9387 210.886 30.44C210.257 30.9413 209.473 31.192 208.534 31.192ZM208.534 24.264C207.969 24.264 207.467 24.4347 207.03 24.776C206.593 25.1067 206.326 25.608 206.23 26.28H210.71C210.678 25.6613 210.459 25.1707 210.054 24.808C209.649 24.4453 209.142 24.264 208.534 24.264ZM217.782 31.192C217.014 31.192 216.336 31.0107 215.75 30.648C215.163 30.2853 214.704 29.7893 214.374 29.16C214.043 28.5307 213.878 27.816 213.878 27.016C213.878 26.216 214.043 25.5067 214.374 24.888C214.704 24.2587 215.163 23.768 215.75 23.416C216.347 23.0533 217.03 22.872 217.798 22.872C218.427 22.872 218.976 22.9947 219.446 23.24C219.926 23.4853 220.299 23.832 220.566 24.28V19.48H222.262V31H220.742L220.566 29.768C220.31 30.1413 219.958 30.472 219.51 30.76C219.062 31.048 218.486 31.192 217.782 31.192ZM218.086 29.72C218.811 29.72 219.403 29.4693 219.862 28.968C220.331 28.4667 220.566 27.8213 220.566 27.032C220.566 26.232 220.331 25.5867 219.862 25.096C219.403 24.5947 218.811 24.344 218.086 24.344C217.36 24.344 216.763 24.5947 216.294 25.096C215.824 25.5867 215.59 26.232 215.59 27.032C215.59 27.5547 215.696 28.0187 215.91 28.424C216.123 28.8293 216.416 29.1493 216.79 29.384C217.174 29.608 217.606 29.72 218.086 29.72Z" fill="#F5F5F5"/>
<rect x="43" y="86" width="181" height="24" rx="12" fill="#03D17A" fill-opacity="0.23"/>
<path d="M58.432 95.82V97.62H60.124V98.82H58.432V100.632H57.196V98.82H55.504V97.62H57.196V95.82H58.432ZM64.0344 94.332H66.0624V99.348H67.2144V100.512H66.0624V102H64.5144V100.512H61.1184V99.036L64.0344 94.332ZM64.5144 95.568L62.1504 99.348H64.5144V95.568ZM71.3515 102.18C70.4155 102.18 69.6355 101.852 69.0115 101.196C68.3875 100.54 68.0755 99.564 68.0755 98.268V97.944C68.0755 96.744 68.3755 95.816 68.9755 95.16C69.5755 94.496 70.3675 94.164 71.3515 94.164C72.3355 94.164 73.1235 94.496 73.7155 95.16C74.3155 95.816 74.6155 96.744 74.6155 97.944V98.268C74.6155 99.564 74.3075 100.54 73.6915 101.196C73.0755 101.852 72.2955 102.18 71.3515 102.18ZM69.6835 98.556C69.6835 100.188 70.2395 101.004 71.3515 101.004C72.4635 101.004 73.0195 100.188 73.0195 98.556V97.536C73.0195 96.84 72.8755 96.312 72.5875 95.952C72.2995 95.584 71.8875 95.4 71.3515 95.4C70.8155 95.4 70.4035 95.584 70.1155 95.952C69.8275 96.312 69.6835 96.84 69.6835 97.536V98.556ZM83.1894 100.08V100.176C83.1894 100.808 83.0174 101.296 82.6734 101.64C82.3294 101.984 81.8894 102.156 81.3534 102.156C80.8254 102.156 80.3854 101.984 80.0334 101.64C79.6894 101.296 79.5174 100.808 79.5174 100.176V100.08C79.5174 99.496 79.6894 99.032 80.0334 98.688C80.3774 98.344 80.8174 98.172 81.3534 98.172C81.8974 98.172 82.3374 98.344 82.6734 98.688C83.0174 99.024 83.1894 99.488 83.1894 100.08ZM80.7054 99.9V100.344C80.7054 101.024 80.9214 101.364 81.3534 101.364C81.5774 101.364 81.7414 101.288 81.8454 101.136C81.9574 100.976 82.0134 100.712 82.0134 100.344V99.9C82.0134 99.588 81.9614 99.364 81.8574 99.228C81.7534 99.092 81.5854 99.024 81.3534 99.024C80.9214 99.024 80.7054 99.316 80.7054 99.9ZM77.2974 97.356C77.5214 97.356 77.6854 97.28 77.7894 97.128C77.9014 96.976 77.9574 96.716 77.9574 96.348V95.892C77.9574 95.588 77.9054 95.368 77.8014 95.232C77.6974 95.088 77.5294 95.016 77.2974 95.016C76.8654 95.016 76.6494 95.308 76.6494 95.892V96.348C76.6494 97.02 76.8654 97.356 77.2974 97.356ZM77.2974 98.148C76.7774 98.148 76.3414 97.976 75.9894 97.632C75.6454 97.288 75.4734 96.804 75.4734 96.18V96.084C75.4734 95.492 75.6414 95.024 75.9774 94.68C76.3214 94.336 76.7614 94.164 77.2974 94.164C77.8494 94.164 78.2934 94.336 78.6294 94.68C78.9734 95.024 79.1454 95.492 79.1454 96.084V96.18C79.1454 96.804 78.9694 97.288 78.6174 97.632C78.2734 97.976 77.8334 98.148 77.2974 98.148ZM82.4814 94.332L77.2014 102H76.2054L81.4854 94.332H82.4814Z" fill="#86B40A"/>
<path d="M104.001 102V93.693H105.132V101.077H109.149V102H104.001ZM112.072 102.169C111.518 102.169 111.071 102.017 110.733 101.714C110.395 101.411 110.226 101.003 110.226 100.492V100.479C110.226 100.219 110.278 99.9893 110.382 99.79C110.486 99.582 110.599 99.4217 110.72 99.309C110.842 99.1877 111.045 99.075 111.331 98.971C111.617 98.8583 111.834 98.7803 111.981 98.737C112.137 98.6937 112.402 98.6287 112.774 98.542C113.277 98.4207 113.611 98.2993 113.775 98.178C113.949 98.0567 114.035 97.8573 114.035 97.58V97.554C114.035 97.2593 113.918 97.021 113.684 96.839C113.459 96.6483 113.112 96.553 112.644 96.553C112.228 96.553 111.83 96.6267 111.448 96.774C111.076 96.9213 110.798 97.0773 110.616 97.242V96.462C111.136 95.8987 111.864 95.617 112.8 95.617C114.334 95.617 115.11 96.3883 115.127 97.931V100.349C115.127 101.06 115.132 101.497 115.14 101.662C115.14 101.697 115.14 101.757 115.14 101.844C115.149 101.922 115.158 101.974 115.166 102H114.295C114.252 101.905 114.209 101.783 114.165 101.636C114.079 101.341 114.035 101.055 114.035 100.778C113.793 101.705 113.138 102.169 112.072 102.169ZM112.462 101.415C112.878 101.415 113.242 101.25 113.554 100.921C113.875 100.592 114.035 100.145 114.035 99.582V98.659C113.845 98.8323 113.455 99.0187 112.865 99.218C112.267 99.4347 111.864 99.621 111.656 99.777C111.448 99.9243 111.344 100.128 111.344 100.388V100.453C111.344 101.094 111.717 101.415 112.462 101.415ZM118.611 102.143C117.675 102.143 116.939 101.918 116.401 101.467V100.661C116.731 100.878 117.043 101.038 117.337 101.142C117.632 101.237 118.018 101.285 118.494 101.285C118.971 101.285 119.322 101.207 119.547 101.051C119.781 100.895 119.898 100.644 119.898 100.297C119.898 99.933 119.768 99.6817 119.508 99.543C119.37 99.4737 119.032 99.3913 118.494 99.296C117.966 99.192 117.593 99.0837 117.376 98.971C117.064 98.815 116.839 98.6243 116.7 98.399C116.562 98.1737 116.492 97.8617 116.492 97.463C116.492 96.865 116.7 96.41 117.116 96.098C117.541 95.7773 118.087 95.617 118.754 95.617C119.552 95.617 120.163 95.7903 120.587 96.137V96.904C120.05 96.618 119.474 96.475 118.858 96.475C117.94 96.475 117.48 96.787 117.48 97.411C117.48 97.7577 117.619 97.996 117.896 98.126C118.139 98.2387 118.52 98.3427 119.04 98.438C119.56 98.5333 119.924 98.6373 120.132 98.75C120.661 99.036 120.925 99.5343 120.925 100.245C120.925 100.852 120.709 101.32 120.275 101.649C119.842 101.978 119.287 102.143 118.611 102.143ZM124.482 102.169C124.135 102.169 123.828 102.117 123.559 102.013C123.299 101.918 123.069 101.723 122.87 101.428C122.679 101.133 122.584 100.748 122.584 100.271V96.631H121.648V95.981C122.133 95.9637 122.445 95.8423 122.584 95.617C122.723 95.383 122.844 94.8977 122.948 94.161C122.957 94.0743 122.965 94.005 122.974 93.953H123.676V95.773H125.678V96.631H123.676V100.193C123.676 100.618 123.754 100.912 123.91 101.077C124.075 101.233 124.326 101.311 124.664 101.311C125.071 101.311 125.444 101.242 125.782 101.103V101.649C125.565 101.996 125.132 102.169 124.482 102.169ZM134.943 102L133.708 97.19L132.512 102H131.004L129.34 95.773H130.458L131.81 101.259L133.188 95.773H134.267L135.723 101.259L137.01 95.773H138.063L136.464 102H134.943ZM144.166 99.14H139.902C139.92 99.9113 140.106 100.462 140.461 100.791C140.825 101.12 141.367 101.285 142.086 101.285C142.927 101.285 143.594 101.116 144.088 100.778V101.48C143.95 101.662 143.69 101.818 143.308 101.948C142.936 102.078 142.485 102.143 141.956 102.143C140.986 102.143 140.214 101.857 139.642 101.285C139.07 100.713 138.784 99.907 138.784 98.867V98.854C138.784 97.9007 139.049 97.125 139.577 96.527C140.115 95.9203 140.821 95.617 141.696 95.617C142.572 95.617 143.217 95.8683 143.633 96.371C144.049 96.865 144.257 97.489 144.257 98.243C144.257 98.5897 144.227 98.8887 144.166 99.14ZM141.696 96.41C141.168 96.41 140.739 96.592 140.409 96.956C140.089 97.3113 139.92 97.8097 139.902 98.451H143.269V98.321C143.269 97.6797 143.126 97.203 142.84 96.891C142.554 96.5703 142.173 96.41 141.696 96.41ZM150.723 99.14H146.459C146.476 99.9113 146.663 100.462 147.018 100.791C147.382 101.12 147.924 101.285 148.643 101.285C149.484 101.285 150.151 101.116 150.645 100.778V101.48C150.506 101.662 150.246 101.818 149.865 101.948C149.492 102.078 149.042 102.143 148.513 102.143C147.542 102.143 146.771 101.857 146.199 101.285C145.627 100.713 145.341 99.907 145.341 98.867V98.854C145.341 97.9007 145.605 97.125 146.134 96.527C146.671 95.9203 147.378 95.617 148.253 95.617C149.128 95.617 149.774 95.8683 150.19 96.371C150.606 96.865 150.814 97.489 150.814 98.243C150.814 98.5897 150.784 98.8887 150.723 99.14ZM148.253 96.41C147.724 96.41 147.295 96.592 146.966 96.956C146.645 97.3113 146.476 97.8097 146.459 98.451H149.826V98.321C149.826 97.6797 149.683 97.203 149.397 96.891C149.111 96.5703 148.73 96.41 148.253 96.41ZM152.197 102V93.251H153.289V98.594L155.954 95.773H157.137L154.407 98.62L157.176 102H155.902L153.289 98.776V102H152.197ZM161.083 103.898V95.773H161.915C161.959 95.8857 162.002 96.0417 162.045 96.241C162.132 96.6397 162.175 96.9907 162.175 97.294V97.359C162.331 96.8217 162.613 96.397 163.02 96.085C163.436 95.773 163.948 95.617 164.554 95.617C165.352 95.617 165.971 95.9073 166.413 96.488C166.864 97.06 167.089 97.8227 167.089 98.776V98.789C167.089 99.855 166.842 100.683 166.348 101.272C165.854 101.853 165.226 102.143 164.463 102.143C163.874 102.143 163.384 102 162.994 101.714C162.604 101.428 162.331 101.029 162.175 100.518V103.898H161.083ZM164.216 101.337C165.386 101.337 165.971 100.544 165.971 98.958V98.49C165.971 97.8573 165.82 97.3677 165.516 97.021C165.213 96.6657 164.78 96.488 164.216 96.488C163.644 96.488 163.159 96.6787 162.76 97.06C162.37 97.4327 162.175 97.944 162.175 98.594V98.854C162.175 99.6773 162.366 100.297 162.747 100.713C163.137 101.129 163.627 101.337 164.216 101.337ZM169.96 102.169C169.406 102.169 168.959 102.017 168.621 101.714C168.283 101.411 168.114 101.003 168.114 100.492V100.479C168.114 100.219 168.166 99.9893 168.27 99.79C168.374 99.582 168.487 99.4217 168.608 99.309C168.73 99.1877 168.933 99.075 169.219 98.971C169.505 98.8583 169.722 98.7803 169.869 98.737C170.025 98.6937 170.29 98.6287 170.662 98.542C171.165 98.4207 171.499 98.2993 171.663 98.178C171.837 98.0567 171.923 97.8573 171.923 97.58V97.554C171.923 97.2593 171.806 97.021 171.572 96.839C171.347 96.6483 171 96.553 170.532 96.553C170.116 96.553 169.718 96.6267 169.336 96.774C168.964 96.9213 168.686 97.0773 168.504 97.242V96.462C169.024 95.8987 169.752 95.617 170.688 95.617C172.222 95.617 172.998 96.3883 173.015 97.931V100.349C173.015 101.06 173.02 101.497 173.028 101.662C173.028 101.697 173.028 101.757 173.028 101.844C173.037 101.922 173.046 101.974 173.054 102H172.183C172.14 101.905 172.097 101.783 172.053 101.636C171.967 101.341 171.923 101.055 171.923 100.778C171.681 101.705 171.026 102.169 169.96 102.169ZM170.35 101.415C170.766 101.415 171.13 101.25 171.442 100.921C171.763 100.592 171.923 100.145 171.923 99.582V98.659C171.733 98.8323 171.343 99.0187 170.753 99.218C170.155 99.4347 169.752 99.621 169.544 99.777C169.336 99.9243 169.232 100.128 169.232 100.388V100.453C169.232 101.094 169.605 101.415 170.35 101.415ZM175.501 104.028C174.912 104.028 174.487 103.881 174.227 103.586V102.988C174.609 103.109 175.016 103.17 175.449 103.17C176.021 103.17 176.416 102.893 176.632 102.338L176.749 102H176.268L173.941 95.773H175.124L177.035 101.181L178.868 95.773H179.96L177.672 102.078C177.412 102.789 177.122 103.291 176.801 103.586C176.481 103.881 176.047 104.028 175.501 104.028ZM181.097 102V95.773H181.929C181.972 95.8857 182.015 96.0417 182.059 96.241C182.145 96.6397 182.189 96.9907 182.189 97.294V97.411C182.293 96.8477 182.54 96.41 182.93 96.098C183.32 95.7773 183.77 95.617 184.282 95.617C185.417 95.617 186.002 96.2583 186.037 97.541C186.141 96.9343 186.401 96.462 186.817 96.124C187.233 95.786 187.709 95.617 188.247 95.617C188.836 95.617 189.295 95.799 189.625 96.163C189.954 96.527 190.119 97.0557 190.119 97.749V102H189.027V97.58C189.027 97.2073 188.944 96.9387 188.78 96.774C188.624 96.6093 188.355 96.527 187.974 96.527C187.419 96.527 186.981 96.7047 186.661 97.06C186.34 97.4153 186.171 97.9137 186.154 98.555V102H185.062V97.58C185.062 97.2073 184.979 96.9387 184.815 96.774C184.659 96.6093 184.39 96.527 184.009 96.527C183.471 96.527 183.038 96.7047 182.709 97.06C182.379 97.4153 182.206 97.9137 182.189 98.555V102H181.097ZM196.862 99.14H192.598C192.616 99.9113 192.802 100.462 193.157 100.791C193.521 101.12 194.063 101.285 194.782 101.285C195.623 101.285 196.29 101.116 196.784 100.778V101.48C196.646 101.662 196.386 101.818 196.004 101.948C195.632 102.078 195.181 102.143 194.652 102.143C193.682 102.143 192.91 101.857 192.338 101.285C191.766 100.713 191.48 99.907 191.48 98.867V98.854C191.48 97.9007 191.745 97.125 192.273 96.527C192.811 95.9203 193.517 95.617 194.392 95.617C195.268 95.617 195.913 95.8683 196.329 96.371C196.745 96.865 196.953 97.489 196.953 98.243C196.953 98.5897 196.923 98.8887 196.862 99.14ZM194.392 96.41C193.864 96.41 193.435 96.592 193.105 96.956C192.785 97.3113 192.616 97.8097 192.598 98.451H195.965V98.321C195.965 97.6797 195.822 97.203 195.536 96.891C195.25 96.5703 194.869 96.41 194.392 96.41ZM198.336 102V95.773H199.168C199.212 95.8857 199.255 96.0417 199.298 96.241C199.385 96.6397 199.428 96.9907 199.428 97.294V97.476C199.532 96.8953 199.792 96.4403 200.208 96.111C200.624 95.7817 201.11 95.617 201.664 95.617C202.288 95.617 202.778 95.799 203.133 96.163C203.497 96.527 203.679 97.0557 203.679 97.749V102H202.587V97.58C202.587 96.878 202.18 96.527 201.365 96.527C200.802 96.527 200.338 96.709 199.974 97.073C199.61 97.4283 199.428 97.9223 199.428 98.555V102H198.336ZM207.614 102.169C207.267 102.169 206.96 102.117 206.691 102.013C206.431 101.918 206.201 101.723 206.002 101.428C205.811 101.133 205.716 100.748 205.716 100.271V96.631H204.78V95.981C205.265 95.9637 205.577 95.8423 205.716 95.617C205.855 95.383 205.976 94.8977 206.08 94.161C206.089 94.0743 206.097 94.005 206.106 93.953H206.808V95.773H208.81V96.631H206.808V100.193C206.808 100.618 206.886 100.912 207.042 101.077C207.207 101.233 207.458 101.311 207.796 101.311C208.203 101.311 208.576 101.242 208.914 101.103V101.649C208.697 101.996 208.264 102.169 207.614 102.169ZM212.051 102.143C211.115 102.143 210.379 101.918 209.841 101.467V100.661C210.171 100.878 210.483 101.038 210.777 101.142C211.072 101.237 211.458 101.285 211.934 101.285C212.411 101.285 212.762 101.207 212.987 101.051C213.221 100.895 213.338 100.644 213.338 100.297C213.338 99.933 213.208 99.6817 212.948 99.543C212.81 99.4737 212.472 99.3913 211.934 99.296C211.406 99.192 211.033 99.0837 210.816 98.971C210.504 98.815 210.279 98.6243 210.14 98.399C210.002 98.1737 209.932 97.8617 209.932 97.463C209.932 96.865 210.14 96.41 210.556 96.098C210.981 95.7773 211.527 95.617 212.194 95.617C212.992 95.617 213.603 95.7903 214.027 96.137V96.904C213.49 96.618 212.914 96.475 212.298 96.475C211.38 96.475 210.92 96.787 210.92 97.411C210.92 97.7577 211.059 97.996 211.336 98.126C211.579 98.2387 211.96 98.3427 212.48 98.438C213 98.5333 213.364 98.6373 213.572 98.75C214.101 99.036 214.365 99.5343 214.365 100.245C214.365 100.852 214.149 101.32 213.715 101.649C213.282 101.978 212.727 102.143 212.051 102.143Z" fill="white"/>
<path d="M93.4965 101.998C93.2444 101.998 93.0363 101.844 93.0036 101.644L92.9991 101.589L93.0075 94.403L89.856 96.9956C89.6619 97.1553 89.3467 97.1556 89.152 96.996C88.9751 96.851 88.9586 96.6239 89.103 96.4638L89.1511 96.4179L93.1533 93.1248C93.1789 93.1038 93.2066 93.0855 93.2358 93.07C93.2446 93.0656 93.2536 93.0611 93.2628 93.0569C93.2707 93.053 93.2789 93.0495 93.2871 93.0462C93.2992 93.0416 93.3116 93.0371 93.3243 93.033C93.334 93.0297 93.3435 93.0269 93.3531 93.0244C93.365 93.0214 93.3777 93.0185 93.3905 93.016C93.3995 93.0141 93.4081 93.0127 93.4168 93.0114C93.4297 93.0096 93.443 93.0081 93.4565 93.007C93.4668 93.006 93.4771 93.0055 93.4873 93.0052C93.4935 93.0051 93.4999 93.005 93.5065 93.005L93.5257 93.0052C93.5355 93.0055 93.5453 93.0061 93.555 93.0069L93.5065 93.005C93.5379 93.005 93.5686 93.0074 93.5984 93.012C93.6055 93.0131 93.6128 93.0144 93.6201 93.0158C93.6351 93.0187 93.6495 93.0221 93.6637 93.026C93.6707 93.0279 93.6782 93.0301 93.6856 93.0325C93.7006 93.0373 93.7149 93.0425 93.7288 93.0482C93.7353 93.0508 93.7422 93.0538 93.7489 93.0569C93.76 93.0621 93.7705 93.0673 93.7807 93.0729C93.788 93.0769 93.7955 93.0812 93.8029 93.0858L93.8087 93.0893C93.8262 93.1003 93.8428 93.1123 93.8583 93.1251L93.8588 93.1256L97.8543 96.4276C98.0481 96.5878 98.0472 96.8466 97.8522 97.0057C97.6749 97.1503 97.3983 97.1627 97.2039 97.0434L97.1482 97.0037L94.0031 94.4052L93.9947 101.59C93.9945 101.816 93.7714 101.999 93.4965 101.998Z" fill="#03D17A"/>
</svg>
