<svg width="260" height="117" viewBox="0 0 260 117" fill="none" xmlns="http://www.w3.org/2000/svg">
<rect width="260" height="117" rx="13" fill="#EDF8D2" fill-opacity="0.08"/>
<path d="M46.76 32V22.176H43.448V20.8H51.752V22.176H48.456V32H46.76ZM55.5496 32.192C54.7923 32.192 54.1096 32.0213 53.5016 31.68C52.9043 31.328 52.4296 30.8427 52.0776 30.224C51.7256 29.5947 51.5496 28.864 51.5496 28.032C51.5496 27.2 51.7256 26.4747 52.0776 25.856C52.4403 25.2267 52.9256 24.7413 53.5336 24.4C54.1416 24.048 54.819 23.872 55.5656 23.872C56.323 23.872 57.0003 24.048 57.5976 24.4C58.2056 24.7413 58.6856 25.2267 59.0376 25.856C59.4003 26.4747 59.5816 27.2 59.5816 28.032C59.5816 28.864 59.4003 29.5947 59.0376 30.224C58.6856 30.8427 58.2056 31.328 57.5976 31.68C56.9896 32.0213 56.307 32.192 55.5496 32.192ZM55.5496 30.736C55.955 30.736 56.3283 30.6347 56.6696 30.432C57.0216 30.2293 57.3043 29.9307 57.5176 29.536C57.731 29.1307 57.8376 28.6293 57.8376 28.032C57.8376 27.4347 57.731 26.9387 57.5176 26.544C57.315 26.1387 57.0376 25.8347 56.6856 25.632C56.3443 25.4293 55.971 25.328 55.5656 25.328C55.1603 25.328 54.7816 25.4293 54.4296 25.632C54.0883 25.8347 53.811 26.1387 53.5976 26.544C53.3843 26.9387 53.2776 27.4347 53.2776 28.032C53.2776 28.6293 53.3843 29.1307 53.5976 29.536C53.811 29.9307 54.0883 30.2293 54.4296 30.432C54.771 30.6347 55.1443 30.736 55.5496 30.736ZM64.4313 32C63.6526 32 63.0339 31.8133 62.5753 31.44C62.1166 31.056 61.8873 30.3787 61.8873 29.408V25.488H60.5273V24.064H61.8873L62.0953 22.048H63.5833V24.064H65.8233V25.488H63.5833V29.408C63.5833 29.8453 63.6739 30.1493 63.8553 30.32C64.0473 30.48 64.3726 30.56 64.8313 30.56H65.7433V32H64.4313ZM70.26 32.192C69.588 32.192 69.0333 32.08 68.596 31.856C68.1587 31.632 67.8333 31.3387 67.62 30.976C67.4067 30.6027 67.3 30.1973 67.3 29.76C67.3 28.992 67.5987 28.384 68.196 27.936C68.7933 27.488 69.6467 27.264 70.756 27.264H72.836V27.12C72.836 26.5013 72.6653 26.0373 72.324 25.728C71.9933 25.4187 71.5613 25.264 71.028 25.264C70.5587 25.264 70.148 25.3813 69.796 25.616C69.4547 25.84 69.2467 26.176 69.172 26.624H67.476C67.5293 26.048 67.7213 25.5573 68.052 25.152C68.3933 24.736 68.82 24.4213 69.332 24.208C69.8547 23.984 70.4253 23.872 71.044 23.872C72.1533 23.872 73.012 24.1653 73.62 24.752C74.228 25.328 74.532 26.1173 74.532 27.12V32H73.06L72.916 30.64C72.692 31.0773 72.3667 31.4453 71.94 31.744C71.5133 32.0427 70.9533 32.192 70.26 32.192ZM70.596 30.816C71.0547 30.816 71.4387 30.7093 71.748 30.496C72.068 30.272 72.3133 29.9787 72.484 29.616C72.6653 29.2533 72.7773 28.8533 72.82 28.416H70.932C70.26 28.416 69.78 28.5333 69.492 28.768C69.2147 29.0027 69.076 29.296 69.076 29.648C69.076 30.0107 69.2093 30.2987 69.476 30.512C69.7533 30.7147 70.1267 30.816 70.596 30.816ZM76.5095 32V20.48H78.2055V32H76.5095ZM84.4485 32V20.8H86.1445V32H84.4485ZM88.3533 32V24.064H89.8573L89.9853 25.456C90.2306 24.9653 90.5879 24.5813 91.0573 24.304C91.5373 24.016 92.0866 23.872 92.7053 23.872C93.6653 23.872 94.4173 24.1707 94.9613 24.768C95.5159 25.3653 95.7933 26.256 95.7933 27.44V32H94.1133V27.616C94.1133 26.08 93.4839 25.312 92.2253 25.312C91.5959 25.312 91.0733 25.536 90.6573 25.984C90.2519 26.432 90.0493 27.072 90.0493 27.904V32H88.3533ZM99.8898 32L96.9138 24.064H98.6898L100.898 30.384L103.106 24.064H104.866L101.906 32H99.8898ZM109.565 32.192C108.808 32.192 108.125 32.0213 107.517 31.68C106.92 31.328 106.445 30.8427 106.093 30.224C105.741 29.5947 105.565 28.864 105.565 28.032C105.565 27.2 105.741 26.4747 106.093 25.856C106.456 25.2267 106.941 24.7413 107.549 24.4C108.157 24.048 108.835 23.872 109.581 23.872C110.339 23.872 111.016 24.048 111.613 24.4C112.221 24.7413 112.701 25.2267 113.053 25.856C113.416 26.4747 113.597 27.2 113.597 28.032C113.597 28.864 113.416 29.5947 113.053 30.224C112.701 30.8427 112.221 31.328 111.613 31.68C111.005 32.0213 110.323 32.192 109.565 32.192ZM109.565 30.736C109.971 30.736 110.344 30.6347 110.685 30.432C111.037 30.2293 111.32 29.9307 111.533 29.536C111.747 29.1307 111.853 28.6293 111.853 28.032C111.853 27.4347 111.747 26.9387 111.533 26.544C111.331 26.1387 111.053 25.8347 110.701 25.632C110.36 25.4293 109.987 25.328 109.581 25.328C109.176 25.328 108.797 25.4293 108.445 25.632C108.104 25.8347 107.827 26.1387 107.613 26.544C107.4 26.9387 107.293 27.4347 107.293 28.032C107.293 28.6293 107.4 29.1307 107.613 29.536C107.827 29.9307 108.104 30.2293 108.445 30.432C108.787 30.6347 109.16 30.736 109.565 30.736ZM116.391 22.56C116.071 22.56 115.805 22.464 115.591 22.272C115.389 22.0693 115.287 21.8187 115.287 21.52C115.287 21.2213 115.389 20.976 115.591 20.784C115.805 20.5813 116.071 20.48 116.391 20.48C116.711 20.48 116.973 20.5813 117.175 20.784C117.389 20.976 117.495 21.2213 117.495 21.52C117.495 21.8187 117.389 22.0693 117.175 22.272C116.973 22.464 116.711 22.56 116.391 22.56ZM115.543 32V24.064H117.239V32H115.543ZM123.238 32.192C122.46 32.192 121.761 32.016 121.142 31.664C120.534 31.312 120.054 30.8267 119.702 30.208C119.361 29.5787 119.19 28.8533 119.19 28.032C119.19 27.2107 119.361 26.4907 119.702 25.872C120.054 25.2427 120.534 24.752 121.142 24.4C121.761 24.048 122.46 23.872 123.238 23.872C124.22 23.872 125.041 24.128 125.702 24.64C126.374 25.152 126.806 25.8453 126.998 26.72H125.222C125.116 26.2827 124.881 25.9413 124.518 25.696C124.156 25.4507 123.729 25.328 123.238 25.328C122.822 25.328 122.438 25.4347 122.086 25.648C121.734 25.8507 121.452 26.1547 121.238 26.56C121.025 26.9547 120.918 27.4453 120.918 28.032C120.918 28.6187 121.025 29.1147 121.238 29.52C121.452 29.9147 121.734 30.2187 122.086 30.432C122.438 30.6453 122.822 30.752 123.238 30.752C123.729 30.752 124.156 30.6293 124.518 30.384C124.881 30.1387 125.116 29.792 125.222 29.344H126.998C126.817 30.1973 126.39 30.8853 125.718 31.408C125.046 31.9307 124.22 32.192 123.238 32.192ZM132.55 32.192C131.771 32.192 131.078 32.0213 130.47 31.68C129.872 31.328 129.403 30.8427 129.062 30.224C128.72 29.6053 128.55 28.8853 128.55 28.064C128.55 27.232 128.715 26.5013 129.046 25.872C129.387 25.2427 129.856 24.752 130.454 24.4C131.062 24.048 131.766 23.872 132.566 23.872C133.344 23.872 134.022 24.048 134.598 24.4C135.174 24.7413 135.622 25.2 135.942 25.776C136.262 26.352 136.422 26.9867 136.422 27.68C136.422 27.7867 136.416 27.904 136.406 28.032C136.406 28.1493 136.4 28.2827 136.39 28.432H130.214C130.267 29.2 130.518 29.7867 130.966 30.192C131.424 30.5867 131.952 30.784 132.55 30.784C133.03 30.784 133.43 30.6773 133.75 30.464C134.08 30.24 134.326 29.9413 134.486 29.568H136.182C135.968 30.3147 135.542 30.9387 134.902 31.44C134.272 31.9413 133.488 32.192 132.55 32.192ZM132.55 25.264C131.984 25.264 131.483 25.4347 131.046 25.776C130.608 26.1067 130.342 26.608 130.246 27.28H134.726C134.694 26.6613 134.475 26.1707 134.07 25.808C133.664 25.4453 133.158 25.264 132.55 25.264Z" fill="#F5F5F5"/>
<path d="M48.04 73V57.16L43.87 61.57H43.78V57.73L47.47 53.83H51.91V73H48.04ZM68.5314 53.83V54.07C63.4314 56.59 60.4114 59.58 59.4714 63.04C60.4314 61.38 61.9414 60.55 64.0014 60.55C65.9614 60.55 67.4914 61.11 68.5914 62.23C69.7114 63.35 70.2714 64.83 70.2714 66.67V66.82C70.2714 68.86 69.6214 70.48 68.3214 71.68C67.0214 72.86 65.2414 73.45 62.9814 73.45C60.6214 73.45 58.7314 72.77 57.3114 71.41C55.9114 70.03 55.2114 68.17 55.2114 65.83V65.26C55.2114 64.08 55.3914 62.94 55.7514 61.84C56.1314 60.74 56.5914 59.79 57.1314 58.99C57.6914 58.19 58.3414 57.43 59.0814 56.71C59.8214 55.99 60.5114 55.41 61.1514 54.97C61.7914 54.53 62.4214 54.15 63.0414 53.83H68.5314ZM62.8314 63.07C61.7514 63.07 60.8914 63.36 60.2514 63.94C59.6114 64.5 59.2714 65.28 59.2314 66.28V67.06C59.2314 68.2 59.5514 69.11 60.1914 69.79C60.8514 70.45 61.7514 70.78 62.8914 70.78C64.0114 70.78 64.8614 70.45 65.4414 69.79C66.0414 69.13 66.3414 68.23 66.3414 67.09V66.64C66.3414 65.58 66.0514 64.72 65.4714 64.06C64.9114 63.4 64.0314 63.07 62.8314 63.07ZM74.0406 75.7H71.5206C72.2806 73.84 72.6606 72.06 72.6606 70.36C72.6606 69.92 72.6106 69.38 72.5106 68.74H76.3206C76.3606 69.18 76.3806 69.52 76.3806 69.76C76.3806 71.92 75.6006 73.9 74.0406 75.7ZM77.0291 57.01V53.83H90.1091V57.97L83.2691 73H79.2791L86.5691 57.01H77.0291ZM99.9346 73.45C97.5946 73.45 95.6446 72.63 94.0846 70.99C92.5246 69.35 91.7446 66.91 91.7446 63.67V62.86C91.7446 59.86 92.4946 57.54 93.9946 55.9C95.4946 54.24 97.4746 53.41 99.9346 53.41C102.395 53.41 104.365 54.24 105.845 55.9C107.345 57.54 108.095 59.86 108.095 62.86V63.67C108.095 66.91 107.325 69.35 105.785 70.99C104.245 72.63 102.295 73.45 99.9346 73.45ZM95.7646 64.39C95.7646 68.47 97.1546 70.51 99.9346 70.51C102.715 70.51 104.105 68.47 104.105 64.39V61.84C104.105 60.1 103.745 58.78 103.025 57.88C102.305 56.96 101.275 56.5 99.9346 56.5C98.5946 56.5 97.5646 56.96 96.8446 57.88C96.1246 58.78 95.7646 60.1 95.7646 61.84V64.39ZM118.362 73.45C116.022 73.45 114.072 72.63 112.512 70.99C110.952 69.35 110.172 66.91 110.172 63.67V62.86C110.172 59.86 110.922 57.54 112.422 55.9C113.922 54.24 115.902 53.41 118.362 53.41C120.822 53.41 122.792 54.24 124.272 55.9C125.772 57.54 126.522 59.86 126.522 62.86V63.67C126.522 66.91 125.752 69.35 124.212 70.99C122.672 72.63 120.722 73.45 118.362 73.45ZM114.192 64.39C114.192 68.47 115.582 70.51 118.362 70.51C121.142 70.51 122.532 68.47 122.532 64.39V61.84C122.532 60.1 122.172 58.78 121.452 57.88C120.732 56.96 119.702 56.5 118.362 56.5C117.022 56.5 115.992 56.96 115.272 57.88C114.552 58.78 114.192 60.1 114.192 61.84V64.39Z" fill="#F5F5F5"/>
<rect x="32" y="87" width="161" height="24" rx="12" fill="#0F4337"/>
<path d="M44.432 96.82V98.62H46.124V99.82H44.432V101.632H43.196V99.82H41.504V98.62H43.196V96.82H44.432ZM47.0478 103V101.404C48.2798 100.644 49.1678 99.98 49.7118 99.412C50.2558 98.844 50.5278 98.264 50.5278 97.672C50.5278 96.864 50.0798 96.46 49.1838 96.46C48.4958 96.46 47.8358 96.684 47.2038 97.132V96.076C47.7798 95.468 48.5478 95.164 49.5078 95.164C50.3078 95.164 50.9438 95.36 51.4158 95.752C51.8958 96.144 52.1358 96.764 52.1358 97.612C52.1358 98.428 51.7958 99.176 51.1158 99.856C50.4438 100.528 49.4278 101.176 48.0678 101.8V101.812H52.1718V103H47.0478ZM53.076 96.604V95.332H58.308V96.988L55.572 103H53.976L56.892 96.604H53.076ZM66.9394 101.08V101.176C66.9394 101.808 66.7674 102.296 66.4234 102.64C66.0794 102.984 65.6394 103.156 65.1034 103.156C64.5754 103.156 64.1354 102.984 63.7834 102.64C63.4394 102.296 63.2674 101.808 63.2674 101.176V101.08C63.2674 100.496 63.4394 100.032 63.7834 99.688C64.1274 99.344 64.5674 99.172 65.1034 99.172C65.6474 99.172 66.0874 99.344 66.4234 99.688C66.7674 100.024 66.9394 100.488 66.9394 101.08ZM64.4554 100.9V101.344C64.4554 102.024 64.6714 102.364 65.1034 102.364C65.3274 102.364 65.4914 102.288 65.5954 102.136C65.7074 101.976 65.7634 101.712 65.7634 101.344V100.9C65.7634 100.588 65.7114 100.364 65.6074 100.228C65.5034 100.092 65.3354 100.024 65.1034 100.024C64.6714 100.024 64.4554 100.316 64.4554 100.9ZM61.0474 98.356C61.2714 98.356 61.4354 98.28 61.5394 98.128C61.6514 97.976 61.7074 97.716 61.7074 97.348V96.892C61.7074 96.588 61.6554 96.368 61.5514 96.232C61.4474 96.088 61.2794 96.016 61.0474 96.016C60.6154 96.016 60.3994 96.308 60.3994 96.892V97.348C60.3994 98.02 60.6154 98.356 61.0474 98.356ZM61.0474 99.148C60.5274 99.148 60.0914 98.976 59.7394 98.632C59.3954 98.288 59.2234 97.804 59.2234 97.18V97.084C59.2234 96.492 59.3914 96.024 59.7274 95.68C60.0714 95.336 60.5114 95.164 61.0474 95.164C61.5994 95.164 62.0434 95.336 62.3794 95.68C62.7234 96.024 62.8954 96.492 62.8954 97.084V97.18C62.8954 97.804 62.7194 98.288 62.3674 98.632C62.0234 98.976 61.5834 99.148 61.0474 99.148ZM66.2314 95.332L60.9514 103H59.9554L65.2354 95.332H66.2314Z" fill="#7AC231"/>
<path d="M88.053 103V94.693H89.184V103H88.053ZM91.1748 103V96.773H92.0068C92.0502 96.8857 92.0935 97.0417 92.1368 97.241C92.2235 97.6397 92.2668 97.9907 92.2668 98.294V98.476C92.3708 97.8953 92.6308 97.4403 93.0468 97.111C93.4628 96.7817 93.9482 96.617 94.5028 96.617C95.1268 96.617 95.6165 96.799 95.9718 97.163C96.3358 97.527 96.5178 98.0557 96.5178 98.749V103H95.4258V98.58C95.4258 97.878 95.0185 97.527 94.2038 97.527C93.6405 97.527 93.1768 97.709 92.8128 98.073C92.4488 98.4283 92.2668 98.9223 92.2668 99.555V103H91.1748ZM99.7781 103L97.4381 96.773H98.6211L100.571 102.259L102.417 96.773H103.522L101.273 103H99.7781ZM109.213 102.285C108.65 102.857 107.939 103.143 107.081 103.143C106.223 103.143 105.512 102.857 104.949 102.285C104.386 101.713 104.104 100.89 104.104 99.815V99.802C104.104 98.8487 104.377 98.0817 104.923 97.501C105.469 96.9117 106.184 96.617 107.068 96.617C107.969 96.617 108.693 96.9073 109.239 97.488C109.785 98.06 110.058 98.827 110.058 99.789V99.802C110.058 100.885 109.776 101.713 109.213 102.285ZM105.716 101.791C106.054 102.172 106.509 102.363 107.081 102.363C107.653 102.363 108.104 102.172 108.433 101.791C108.771 101.401 108.94 100.799 108.94 99.984V99.49C108.94 98.84 108.771 98.333 108.433 97.969C108.104 97.5963 107.653 97.41 107.081 97.41C106.509 97.41 106.054 97.5963 105.716 97.969C105.387 98.333 105.222 98.84 105.222 99.49V99.984C105.222 100.799 105.387 101.401 105.716 101.791ZM112.611 95.642C112.472 95.772 112.303 95.837 112.104 95.837C111.904 95.837 111.735 95.772 111.597 95.642C111.458 95.5033 111.389 95.3343 111.389 95.135C111.389 94.9357 111.458 94.7667 111.597 94.628C111.735 94.4893 111.904 94.42 112.104 94.42C112.303 94.42 112.472 94.4893 112.611 94.628C112.749 94.7667 112.819 94.9357 112.819 95.135C112.819 95.3343 112.749 95.5033 112.611 95.642ZM111.558 103V96.773H112.65V103H111.558ZM117.148 103.143C116.247 103.143 115.519 102.84 114.964 102.233C114.418 101.618 114.145 100.825 114.145 99.854V99.841C114.145 98.7923 114.44 97.995 115.029 97.449C115.619 96.8943 116.316 96.617 117.122 96.617C118.145 96.617 118.817 96.825 119.137 97.241V97.969C118.678 97.6397 118.032 97.475 117.2 97.475C116.646 97.475 116.182 97.6483 115.809 97.995C115.445 98.333 115.263 98.84 115.263 99.516V99.984C115.263 101.544 115.939 102.324 117.291 102.324C117.959 102.324 118.609 102.129 119.241 101.739V102.415C119.094 102.614 118.834 102.788 118.461 102.935C118.097 103.074 117.66 103.143 117.148 103.143ZM125.665 100.14H121.401C121.419 100.911 121.605 101.462 121.96 101.791C122.324 102.12 122.866 102.285 123.585 102.285C124.426 102.285 125.093 102.116 125.587 101.778V102.48C125.449 102.662 125.189 102.818 124.807 102.948C124.435 103.078 123.984 103.143 123.455 103.143C122.485 103.143 121.713 102.857 121.141 102.285C120.569 101.713 120.283 100.907 120.283 99.867V99.854C120.283 98.9007 120.548 98.125 121.076 97.527C121.614 96.9203 122.32 96.617 123.195 96.617C124.071 96.617 124.716 96.8683 125.132 97.371C125.548 97.865 125.756 98.489 125.756 99.243C125.756 99.5897 125.726 99.8887 125.665 100.14ZM123.195 97.41C122.667 97.41 122.238 97.592 121.908 97.956C121.588 98.3113 121.419 98.8097 121.401 99.451H124.768V99.321C124.768 98.6797 124.625 98.203 124.339 97.891C124.053 97.5703 123.672 97.41 123.195 97.41ZM130.173 103V94.693H131.304V102.077H135.321V103H130.173ZM138.244 103.169C137.689 103.169 137.243 103.017 136.905 102.714C136.567 102.411 136.398 102.003 136.398 101.492V101.479C136.398 101.219 136.45 100.989 136.554 100.79C136.658 100.582 136.771 100.422 136.892 100.309C137.013 100.188 137.217 100.075 137.503 99.971C137.789 99.8583 138.006 99.7803 138.153 99.737C138.309 99.6937 138.573 99.6287 138.946 99.542C139.449 99.4207 139.782 99.2993 139.947 99.178C140.12 99.0567 140.207 98.8573 140.207 98.58V98.554C140.207 98.2593 140.09 98.021 139.856 97.839C139.631 97.6483 139.284 97.553 138.816 97.553C138.4 97.553 138.001 97.6267 137.62 97.774C137.247 97.9213 136.97 98.0773 136.788 98.242V97.462C137.308 96.8987 138.036 96.617 138.972 96.617C140.506 96.617 141.282 97.3883 141.299 98.931V101.349C141.299 102.06 141.303 102.497 141.312 102.662C141.312 102.697 141.312 102.757 141.312 102.844C141.321 102.922 141.329 102.974 141.338 103H140.467C140.424 102.905 140.38 102.783 140.337 102.636C140.25 102.341 140.207 102.055 140.207 101.778C139.964 102.705 139.31 103.169 138.244 103.169ZM138.634 102.415C139.05 102.415 139.414 102.25 139.726 101.921C140.047 101.592 140.207 101.145 140.207 100.582V99.659C140.016 99.8323 139.626 100.019 139.037 100.218C138.439 100.435 138.036 100.621 137.828 100.777C137.62 100.924 137.516 101.128 137.516 101.388V101.453C137.516 102.094 137.889 102.415 138.634 102.415ZM144.783 103.143C143.847 103.143 143.11 102.918 142.573 102.467V101.661C142.902 101.878 143.214 102.038 143.509 102.142C143.804 102.237 144.189 102.285 144.666 102.285C145.143 102.285 145.494 102.207 145.719 102.051C145.953 101.895 146.07 101.644 146.07 101.297C146.07 100.933 145.94 100.682 145.68 100.543C145.541 100.474 145.203 100.391 144.666 100.296C144.137 100.192 143.765 100.084 143.548 99.971C143.236 99.815 143.011 99.6243 142.872 99.399C142.733 99.1737 142.664 98.8617 142.664 98.463C142.664 97.865 142.872 97.41 143.288 97.098C143.713 96.7773 144.259 96.617 144.926 96.617C145.723 96.617 146.334 96.7903 146.759 97.137V97.904C146.222 97.618 145.645 97.475 145.03 97.475C144.111 97.475 143.652 97.787 143.652 98.411C143.652 98.7577 143.791 98.996 144.068 99.126C144.311 99.2387 144.692 99.3427 145.212 99.438C145.732 99.5333 146.096 99.6373 146.304 99.75C146.833 100.036 147.097 100.534 147.097 101.245C147.097 101.852 146.88 102.32 146.447 102.649C146.014 102.978 145.459 103.143 144.783 103.143ZM150.654 103.169C150.307 103.169 150 103.117 149.731 103.013C149.471 102.918 149.241 102.723 149.042 102.428C148.851 102.133 148.756 101.748 148.756 101.271V97.631H147.82V96.981C148.305 96.9637 148.617 96.8423 148.756 96.617C148.895 96.383 149.016 95.8977 149.12 95.161C149.129 95.0743 149.137 95.005 149.146 94.953H149.848V96.773H151.85V97.631H149.848V101.193C149.848 101.618 149.926 101.912 150.082 102.077C150.247 102.233 150.498 102.311 150.836 102.311C151.243 102.311 151.616 102.242 151.954 102.103V102.649C151.737 102.996 151.304 103.169 150.654 103.169ZM161.115 103L159.88 98.19L158.684 103H157.176L155.512 96.773H156.63L157.982 102.259L159.36 96.773H160.439L161.895 102.259L163.182 96.773H164.235L162.636 103H161.115ZM170.338 100.14H166.074C166.091 100.911 166.278 101.462 166.633 101.791C166.997 102.12 167.539 102.285 168.258 102.285C169.099 102.285 169.766 102.116 170.26 101.778V102.48C170.121 102.662 169.861 102.818 169.48 102.948C169.107 103.078 168.657 103.143 168.128 103.143C167.157 103.143 166.386 102.857 165.814 102.285C165.242 101.713 164.956 100.907 164.956 99.867V99.854C164.956 98.9007 165.22 98.125 165.749 97.527C166.286 96.9203 166.993 96.617 167.868 96.617C168.743 96.617 169.389 96.8683 169.805 97.371C170.221 97.865 170.429 98.489 170.429 99.243C170.429 99.5897 170.399 99.8887 170.338 100.14ZM167.868 97.41C167.339 97.41 166.91 97.592 166.581 97.956C166.26 98.3113 166.091 98.8097 166.074 99.451H169.441V99.321C169.441 98.6797 169.298 98.203 169.012 97.891C168.726 97.5703 168.345 97.41 167.868 97.41ZM176.895 100.14H172.631C172.648 100.911 172.835 101.462 173.19 101.791C173.554 102.12 174.096 102.285 174.815 102.285C175.656 102.285 176.323 102.116 176.817 101.778V102.48C176.678 102.662 176.418 102.818 176.037 102.948C175.664 103.078 175.214 103.143 174.685 103.143C173.714 103.143 172.943 102.857 172.371 102.285C171.799 101.713 171.513 100.907 171.513 99.867V99.854C171.513 98.9007 171.777 98.125 172.306 97.527C172.843 96.9203 173.55 96.617 174.425 96.617C175.3 96.617 175.946 96.8683 176.362 97.371C176.778 97.865 176.986 98.489 176.986 99.243C176.986 99.5897 176.956 99.8887 176.895 100.14ZM174.425 97.41C173.896 97.41 173.467 97.592 173.138 97.956C172.817 98.3113 172.648 98.8097 172.631 99.451H175.998V99.321C175.998 98.6797 175.855 98.203 175.569 97.891C175.283 97.5703 174.902 97.41 174.425 97.41ZM178.369 103V94.251H179.461V99.594L182.126 96.773H183.309L180.579 99.62L183.348 103H182.074L179.461 99.776V103H178.369Z" fill="#F5F5F5"/>
<path d="M77.507 94.0049C77.759 94.0052 77.9671 94.1592 77.9998 94.3588L78.0043 94.4142L77.9959 101.6L81.1474 99.0076C81.3416 98.8478 81.6568 98.8476 81.8514 99.0071C82.0284 99.1521 82.0448 99.3792 81.9004 99.5394L81.8523 99.5852L77.8501 102.878C77.8245 102.899 77.7968 102.918 77.7676 102.933C77.7588 102.938 77.7498 102.942 77.7406 102.946C77.7327 102.95 77.7246 102.954 77.7163 102.957C77.7043 102.962 77.6918 102.966 77.6792 102.97C77.6694 102.973 77.6599 102.976 77.6503 102.979C77.6384 102.982 77.6258 102.985 77.6129 102.987C77.6039 102.989 77.5953 102.991 77.5866 102.992C77.5737 102.994 77.5604 102.995 77.5469 102.996C77.5366 102.997 77.5264 102.998 77.5162 102.998C77.51 102.998 77.5035 102.998 77.497 102.998L77.4777 102.998C77.4679 102.998 77.4581 102.997 77.4484 102.996L77.497 102.998C77.4655 102.998 77.4348 102.996 77.405 102.991C77.3979 102.99 77.3906 102.989 77.3833 102.987C77.3683 102.984 77.3539 102.981 77.3398 102.977C77.3327 102.975 77.3252 102.973 77.3178 102.971C77.3028 102.966 77.2885 102.961 77.2746 102.955C77.2681 102.952 77.2612 102.949 77.2545 102.946C77.2434 102.941 77.2329 102.936 77.2227 102.93C77.2154 102.926 77.2079 102.922 77.2005 102.917L77.1947 102.914C77.1772 102.903 77.1606 102.891 77.1451 102.878L77.1446 102.878L73.1491 99.5756C72.9553 99.4154 72.9562 99.1566 73.1512 98.9975C73.3285 98.8529 73.6051 98.8404 73.7996 98.9597L73.8553 98.9995L77.0003 101.598L77.0087 94.4131C77.0089 94.1874 77.232 94.0046 77.507 94.0049Z" fill="#F81B3A"/>
</svg>
