<svg width="24" height="24" viewBox="0 0 24 24" fill="none" xmlns="http://www.w3.org/2000/svg">
<path d="M18.75 13.5L17.6895 14.5605L19.6252 16.5H13.5C12.7044 16.5 11.9413 16.8161 11.3787 17.3787C10.8161 17.9413 10.5 18.7044 10.5 19.5C10.5 20.2956 10.8161 21.0587 11.3787 21.6213C11.9413 22.1839 12.7044 22.5 13.5 22.5H15V21H13.5C13.1022 21 12.7206 20.842 12.4393 20.5607C12.158 20.2794 12 19.8978 12 19.5C12 19.1022 12.158 18.7206 12.4393 18.4393C12.7206 18.158 13.1022 18 13.5 18H19.6252L17.688 19.9402L18.75 21L22.5 17.25L18.75 13.5Z" fill="#9B9B9B"/>
<path d="M7.5 16.5H3L2.99775 5.1795L11.5732 11.1165C11.6986 11.2033 11.8475 11.2497 12 11.2497C12.1525 11.2497 12.3014 11.2033 12.4268 11.1165L21 5.1825V12H22.5V4.5C22.4996 4.1023 22.3414 3.721 22.0602 3.43978C21.779 3.15856 21.3977 3.0004 21 3H3C2.60256 3 2.22137 3.15773 1.94013 3.43854C1.65889 3.71936 1.5006 4.10032 1.5 4.49775V16.5C1.5006 16.8976 1.65882 17.2788 1.94 17.56C2.22117 17.8412 2.60236 17.9994 3 18H7.5V16.5ZM19.3493 4.5L12 9.588L4.65075 4.5H19.3493Z" fill="#9B9B9B"/>
</svg>
