<svg width="20" height="22" viewBox="0 0 20 22" fill="none" xmlns="http://www.w3.org/2000/svg">
<path d="M16.9561 16.55C16.9561 16.9759 16.6396 17.3278 16.2291 17.3835L16.1149 17.3912L2.88035 17.3911L6.02912 20.5272C6.35838 20.855 6.35961 21.3876 6.03187 21.7168C5.73392 22.0162 5.26667 22.0444 4.9368 21.8008L4.84227 21.7196L0.247568 17.1461C0.220493 17.1185 0.195908 17.0904 0.173246 17.0608L0.247568 17.1461C0.206114 17.1048 0.169861 17.0603 0.138811 17.0134C0.128609 16.997 0.118191 16.98 0.108377 16.9626C0.0986385 16.9464 0.0900917 16.93 0.0821228 16.9133C0.0748539 16.8969 0.0675182 16.8802 0.0607185 16.8633C0.0515175 16.8418 0.0437279 16.8197 0.0368843 16.7974C0.033371 16.7843 0.0295944 16.7708 0.0261497 16.7572C0.0194988 16.733 0.0144787 16.7086 0.01054 16.6842C0.00923729 16.6727 0.00756645 16.6607 0.00615501 16.6486C0.00235748 16.621 0.000499725 16.5936 -2.67029e-05 16.5661C0.000490189 16.5607 0.00043869 16.5554 0.00043869 16.55L-2.67029e-05 16.5336C0.000499725 16.5062 0.00235748 16.4788 0.00554848 16.4516L0.00043869 16.55C0.00043869 16.5042 0.00410271 16.4592 0.0111542 16.4154C0.0144768 16.3911 0.0195007 16.3668 0.0256062 16.3427C0.0294209 16.3299 0.0329876 16.3171 0.0368443 16.3045C0.0435658 16.2804 0.0520439 16.2564 0.0616379 16.2328C0.0675869 16.2198 0.0730305 16.2074 0.078764 16.1951C0.0870476 16.1757 0.097002 16.1563 0.107761 16.1372C0.118246 16.12 0.128635 16.103 0.139595 16.0864C0.147366 16.0735 0.156319 16.0607 0.165667 16.0482L0.173246 16.0392C0.195908 16.0096 0.220493 15.9815 0.246817 15.9552L0.247568 15.9537L4.84227 11.3802C5.17153 11.0525 5.70413 11.0537 6.03187 11.3829C6.32982 11.6823 6.35588 12.1497 6.11078 12.4784L6.02912 12.5725L2.87811 15.7087L16.1149 15.7088C16.5795 15.7088 16.9561 16.0854 16.9561 16.55ZM19.9995 5.41457L20 5.43095C19.9995 5.45836 19.9976 5.48575 19.9944 5.51302L19.9995 5.41457C19.9995 5.46039 19.9959 5.50536 19.9888 5.5492C19.9855 5.57317 19.9806 5.59724 19.9746 5.6211C19.9705 5.63512 19.9664 5.64942 19.9621 5.66356C19.9558 5.68565 19.9483 5.70702 19.9398 5.72813C19.933 5.74338 19.9263 5.75883 19.9191 5.77403C19.9113 5.79209 19.9021 5.80988 19.8922 5.82739C19.883 5.84238 19.874 5.85723 19.8646 5.87176C19.8557 5.88672 19.8453 5.90169 19.8343 5.91639L19.7524 6.01087L15.1577 10.5844C14.8284 10.9121 14.2958 10.9109 13.9681 10.5816C13.6702 10.2823 13.6441 9.81493 13.8892 9.48619L13.9709 9.39203L17.1232 6.255L3.88506 6.25574C3.42049 6.25574 3.04388 5.87914 3.04388 5.41457C3.04388 4.98871 3.36034 4.63677 3.77092 4.58107L3.88506 4.57339L17.1221 4.57264L13.9709 1.43735C13.6715 1.13941 13.6433 0.672153 13.8869 0.342284L13.9681 0.247751C14.266 -0.0515746 14.7333 -0.0798032 15.0632 0.163774L15.1577 0.245002L19.7524 4.81852L19.7978 4.86805C19.8078 4.87968 19.8174 4.89158 19.8267 4.90375L19.7524 4.81852C19.7939 4.85978 19.8301 4.90429 19.8612 4.95122C19.8714 4.9676 19.8818 4.98462 19.8916 5.00203C19.9013 5.01819 19.9099 5.03461 19.9178 5.05125C19.9251 5.06768 19.9325 5.08434 19.9393 5.10127C19.9485 5.12279 19.9562 5.14486 19.9631 5.16715C19.9667 5.18072 19.9706 5.19461 19.9741 5.20864C19.9804 5.23124 19.9851 5.25408 19.9889 5.27705C19.9906 5.29087 19.9925 5.30441 19.9941 5.31805C19.9976 5.34401 19.9994 5.37065 20 5.39731C19.9995 5.40319 19.9995 5.40887 19.9995 5.41457Z" fill="#9B9B9B"/>
</svg>
